<svg xmlns="http://www.w3.org/2000/svg" viewBox="0 0 1014.14 789"><defs><style>.cls-1{fill:#00c7ff;opacity:0.5;}.cls-2{fill:none;stroke:#00c7ff;stroke-miterlimit:10;stroke-width:2px;}</style></defs><title>world map.ai</title><g id="Calque_1_-_copie" data-name="Calque 1 - copie"><path class="cls-1" d="M983.31,697.52c1.09-.06,1.26-1,1.35-1.74s-.18-1.67-1.21-1.82c-1.33-.19-1.89.69-2,1.79,0,0,0,0,0,.07C981.74,696.8,982.07,697.59,983.31,697.52Z"/><path class="cls-1" d="M983.37,690.69c0,.05,0,.1,0,.16l.59-.05Z"/><path class="cls-1" d="M969.67,752.67a8.71,8.71,0,0,1-.57-.69c-1.47-2-1.89-4.33-2.22-6.8-1.58-12,1.74-23,6-33.91-1.34-3.95,1-5.93,4.22-5.86,6,.12,4.8-3.87,4.85-7.29,0-.77-.46-1.54-.46-2.3l-.06-.24c-.45-2.05,2.48-2.7,2-4.74a2.25,2.25,0,0,1-.45,0c-.14,0-.3-.26-.36-.43-3.24-9.08-10-12.74-19-10.23-.15-.79-.29-1.59-.43-2.39-2.14-1.32-5.07-2.14-6.26-4.06-2.78-4.45-6.93-5.8-11.45-6.16-3.74-.3-4.27-10-10.26-3.38-.38.42-3.42-.44-3.71-1.26-1.08-3-3.37-2-5.24-2-6.34-.14-10.58-4.86-9.59-10.9-3.7,3.16-7.46.25-11.11-.06-10.85-.9-21-6.87-32.32-4.59-1.67.34-2.37-.73-3.53-1.71-4.66-3.88-12.15-4.72-14.05-1.07-2.31,4.43-6.4,5.11-9.9,6.95-4.71,2.48-16.1.32-17.92-2.82-3.08-5.31-5.63-5.43-9.6-.53-1.62,2-4,5.08-6.17,3.47-6.47-4.77-15.21-4-21.22-9.41-.82-.74-1.3-.28-2.08.13-6.47,3.38-7.78,2.54-8.9-5.61h0l-.07-.09a.44.44,0,0,0,0,.1c-4.51.43-4.74,3.76-4.5,7.12.25,3.54-1.34,6.05-4.6,6.15a46,46,0,0,0-9.82,1.11c-3.12.77-5.11,0-6-3.45-.28-1.07-2.05-4.15-3.17-2-3.79,7.18-16.81,1.87-17.21,13.18,0,.45-1.75.84-2.7,1.24-1.91.81-2.86,2-3.89,4.12-2.39,4.93-5.56,10-12.35,9.73-1.23-3.54-2.31-7.19-6.7-8.13-3.55.56-5.4-1.46-6.51-4.47-.39-1.08,0-2.44-2-2.34-8.29.42-16.27-2.36-24.57-2.49-3.11,0-6.18-2.78-9.27-4.28,2.65-4.11-2-5-3.48-6-4.41-2.89-9.09-1.39-13.26,1.43-3.5,2.37.68,4.05.6,6.23-6.69,1.89-14,2.71-20,6.06-4.32,2.44-11.85,3.7-10.76,12.08.26,2-2.92,3.68-2.86,6.31-3.34-.23-5.68-2.92-9-3.52-2.42-.43,0-2.68,0-4.11,0-3-2.77-5.68-4.62-4.61-4.33,2.5-9.78,1.35-13.68,5.83-4.38,5-10.32,7.54-17.79,5.23-6.11-1.89-12.34-4.14-19-3.7-2.08.14-4.32-3.45-6.11-.66-3.12,4.85-7.26,2.76-11.35,3.05-1.76.12-4.43.12-5.74.1-6.27-.11-12.5,4.89-19,.09-2.26-1.67-5.69-2.06-8.8.88-2.44,2.31-6.42,2.22-9.87,2.93-6.76,1.38-14,1.91-18.06,9.53-1.72,3.23-5,5.77-9.63,6.94-5.58,1.4-12.29,3-13.19,11.38-.31,2.84-3,7.19-7,6-5.49-1.64-6.72,2.59-5.9,5,2.47,7.24-8.42,10.83-4.26,18.06a2.49,2.49,0,0,1-1.3,1.11c-6.38.66-8.13,6.46-11.52,10.4-.59.69-.38,2.19-2,1.51-5-2.15-6,2.58-6,4.93-.22,6-3.21,10.39-6.17,15a.45.45,0,0,0-.63,0l-.38-1.59.08-2.8L404,761l1.25,0c3.26-3.53,2.43-5.58-2.14-6.82-2.88-.78-6.22-.49-8.36-3.43-1.24-1.7-1.78.34-2.69.85-4.27,2.37-7.63,8.35-13.86,3.62-.69-.53-2.36.25-3.58.42h0l-1.12-.57c1.42-1.76.22-3-.82-4.32a25.43,25.43,0,0,0-12.21-9c-.6-1.1-1.2-2.19-1.82-3.3-2.25-.93-3.76-3-5.68-4.37-5.44-4-11.64-6.92-16.26-12.14-2.53-2.86-3.33-5-1.73-8.65,2-4.65,5.77-9,4-14.74,3.75-6.74-1.5-13-1.64-19.64-.13-6-1.48-10.82,3.71-15.05,1.88-1.53.35-2.9-.59-4.31-1.41-2.09-4-4.6-3.67-6.44,1.32-6.64,3.91-13,3.54-20a.75.75,0,0,1,0-.23c-2.86-1.48-4.41,1.93-6.48,3-5.91,3-9.49,8.51-12.36,14-1.31,2.52-3.41,2.07-3.66,1.7-1.77-2.67-2.33-1-2.61.65a4.3,4.3,0,0,0,.3,1.72c.73-1,1.15-.73,2.24.34,2.46,2.43,2.74,13.17-.07,13.76-3.83.81-1.64,4.07-3.65,5.83-.65-1.78-.85-3.29-1.66-4.33-1.3-1.67-2.24-3.8-5.14-3.71-4.09.13-.79,2.86-1.62,3.88a7.57,7.57,0,0,1-4.87,3.09c-1.82.3-4.13-1.86-5.57.84.81,2.09,3.73,2.49,4.14,5.08-1.21.66-2.35,1.18-3.36,1.88s-3.21.13-3.09,2.51c1.34,1.56,2.64,0,3.9-.25,2.08-.35,4.61-2.78,6,.14.84,1.81-1.64,3.11-3.27,4.37-2.3,1.78-4.34,4.06.77,5.26,3.57.84,4.55,4.88,3.85,7-.9,2.68-4,2.7-6.41.1A6.32,6.32,0,0,0,293.8,698c-1.93-.17-4-2.18-5.77-.35-2.18,2.22,2.13,3.15,1.37,5.26-2.26,1.11-2.21,3.29-2.44,5.33-2-1-3.73-3.19-6.22-1.45-5.7,4-8.48,3-12.65-3.11-3.25-4.8-8.63-6-14.23-6.87s-13.31,3.43-15.76-6c-.35-1.34-1.65-1.76-3.1-1.42-4.39,1-9-.81-13.43,1.8-3.42,2-5.67,8.92-2.84,11.82,4.15,4.26,4.91,13.27,1.61,17.91-1.75,2.45-4.68,3.54-6.28,1.56s-3.71-3-5-5c-2.42-3.7-4.77-3.84-6.05.77-.5,1.81-1.23,2.64-2.93,2.28s-3.43-.91-2.54-3.27-.47-3.6-2.37-3.89c-10.14-1.58-20.09-4-30.08-6.3-2.41-.56-5.09,2.34-7.78-.22-3.8-3.62-6-1-6.81,2.55-.88,4.08-2.15,5.86-6.19,3.31a2.88,2.88,0,0,0-3,0c-6.94,3.23-14.32,5.47-21.49,7.95-2.77,1-6.14,9.3-10.55,1.57,0,0-1,.36-1,.58-.23,4.4-4,2.59-5.76,2.67-8,.4-9.84,7.72-14.45,11.91a3.17,3.17,0,0,0-1.3,2.36c-.28,6.76-4.8,7.43-9.89,6.67-3.34-.5-6.68.43-10.09-.8-2.27-.82-4.46.54-3.58,3.8,1.09,4-.57,5.24-4.55,5.4-7.1.29-12.1,4.08-12.51,8.89-4.55-1.91-9.35-2.15-14.14-2.36-10.41-.45-20.82-.84-30.89-3.95,0,8.21.27,16.43-.11,24.62-.2,4.48.55,6,5.62,6,29.78-.31,59.57-.15,89.35-.15H959.93c16.65,0,33.31-.08,50,.08,2.72,0,3.32-.52,3.25-3.26-.23-8.24-.08-16.5-.08-24.75-4.1-2.91-7.91-6.44-12.39-8.55-4.27-2-9.11-2.81-13.76-4l-1-.28-.63,0c-5.83-.37-11.39,0-15.3,5.27l-.26.36"/><path class="cls-1" d="M314.21,656.19l.2-.07.19.23a1,1,0,0,0,.08-.33c1.15-.53,1-1.33.81-2.17a20.24,20.24,0,0,0-1.22,2.1Z"/><path class="cls-1" d="M342.33,633.07a1.39,1.39,0,0,0-.4-1.11,1.1,1.1,0,0,0-1.06,0,1.66,1.66,0,0,0-.59.82,5.79,5.79,0,0,1,1.2.85C341.56,633.68,342.29,633.3,342.33,633.07Z"/><path class="cls-1" d="M23.83,152.38c.34-2.57,1.47-3.74,3.84-4.86,3.78-1.79,3.71-4.43.53-7.36-2.43-2.23-5.24-2.34-8.13-2.65-.83-.09-1.89,2.18-2.26.28-1.25-6.56-7.84-7.88-11.32-12.2-1.35-1.68-3-3.12-5.36-1.48v19c6.9,1.72,11.36,7.14,16.71,11.19C21,156.72,23.24,156.85,23.83,152.38Z"/><path class="cls-1" d="M238.65,3.77c-.78.06-2,0-1.8,1,.16.86,1.18,1.55,1.81,2.32a.83.83,0,0,1,.28.69L239,8c-1.24,3.59.22,4.87,3.72,4.41l0,0,.08,0,1.35,3.82c-3.58,3,1.78,3.79,1.5,6-.07,3.43.86,6.06,4.89,6.26l2.47.56c4.64.59,9.52-2.76,14,.88l.78-1,.21.15c-.38,2.18,1.49,4.43-.33,6.93-1.91-1.32-2.87-4.76-6-3.27-3.35,1.61-1.63,4.3-1.05,6.6.4,1.59-.83,2.24-1.36,3.3-2.68,4.06-5.64,7.49-11.31,6.09-3.09-.76-4.14-4.15-7.19-5.1-2.62-.81-6.06-.66-5.57,1.71.66,3.23,1.89,7.88,7,7.88,6.32,0,6.69,3.67,5.89,8.67-.72,4.5.54,11.1,4.59,10.59,6.14-.78,11.72,2.13,17.63.76,1.46-.34,2.58-1.94,4.62-.9,3,1.54,6.23.9,7.33-2.55s3.91-7.32-2.09-10.34c-4.53-2.28-7.71-.85-11.41.76-5.11,2.23-9.57,1.65-12.89-3.21-.47-.69-3-1.64-.71-2.33,2-.61.48-4,3.89-3.31,4.5,1,9.22.66,13.92.24,1.42-.13,7.14-5.28,6.88,2.3a2.62,2.62,0,0,0,1.59.23c3-1.33,5.73-3.14,7.2-6,.65-1.26,1.62-4.48-2.32-3.5l-.74-.74c.05-1.24.39-2.61-1.4-3l0-.14c5.21-2.18,7-5.29,2.73-9.6,1.46-2.17,2.75.69,4.84-.82,7.15-5.15,7.75-8.2,1.5-13.67,2.34-2.43,3.34-6.21,7.18-7.12,1.88-.28.16-3.87,3.21-3.33,4.13.73,4.5-2.38,4.83-5.34h-72.1L239,3.21A.79.79,0,0,1,238.65,3.77Z"/><path class="cls-1" d="M8.3,104.25c-.07-2.74-2.58-2.8-4.68-2.94-.83-.05-1.66,0-2.48-.06v6.35a22.4,22.4,0,0,0,3.09-.25C6.06,107,8.37,106.53,8.3,104.25Z"/><path class="cls-1" d="M39,150.4c2.53,7.48,8.08,4.8,12.56,3.63,3.48-.9,3.74.52,4.35,3,1.1,4.44-2.19,3.39-4.47,4-2.48.63-5.73-2.28-7.11.11-3.31,5.77-3.44,12.6-3.1,19,.19,3.33,4.78,3.25,7.69,4.09a3.49,3.49,0,0,1,2.68,2.46c.94,4.2,3.42,4.8,7.07,3.49A4.26,4.26,0,0,1,64,192.31c1.06,1.93-.14,3.55-1.38,5.13a19.76,19.76,0,0,1-7.63,6.4c-2.93,1.28-5.68,2.92-7.26,6.75,8.77-3.85,16.23-8.21,22.46-14.48,2.25-2.27,4.47-4.56,3.6-8.24-.3-1.26-1.64-3.85.3-3.45,2.95.6,5.57-3.41,7-1.4,3.5,4.89,7,1.43,8.88-.23,3.64-3.24,7.2-2.39,10.54-1.05A24.74,24.74,0,0,0,111,183.4c3.76-.71,6.21,1.92,9,3.6l2.14.6a.5.5,0,0,1,.42.46c1.78,3.24,5.69.72,7.78,2.82,5.08,5.08,7.55,12,11.51,17.88,5.55,8.25,9.39,17.6,18.24,23.12,4,2.51,4.43,7.63,2.76,9.65-4.79,5.79-2.35,11.5-2.43,17.39,3.85-.18,1.59-5,5-5.2a6.33,6.33,0,0,1,.56,1.8c-.09,4-7.16,7.35-.94,11.83a11.73,11.73,0,0,1-2,2.3c-3.26,2.21-2.93,2.06-1.77,6,3.5,11.8,14.43,17.84,20.74,27.44-.48,4,4.26,4.87,5,8.16.3,1.4-.94,3.59,2,3.5.57,0,1.24.37,1.48-.47.53-1.83-.35-3.31-1.39-4.62-2-2.58-4.78-4.82-3.11-8.71,5.1-.1,3.85,6,7.34,7.49.82,3.36,3,5.7,5.31,8.22,4.33,4.73,9.33,9.15,12,15.06,3.91,8.66,16.63,18.14,25.91,17.37a15.69,15.69,0,0,1,11.59,3.45,26.3,26.3,0,0,0,8.92,4.29c4.28,1.26,8.6,2.72,10.25,8.21,1.21,4,12.84,10,15,8.2,5-4.29,6.22.44,6.77,3.08,1,5,2.1,10.19-3.79,13.93-6.32,4-8.07,16.71-3.15,22.44,3.36,3.91,5.33,8.4,7.56,12.84,3.52,7,5,15.7,14.86,17.2l1.34.08a4.11,4.11,0,0,0,2.56,2.53c4.87,7.86.92,16.05.92,24.09a112.45,112.45,0,0,0-3.63,23.36c-.65,8.91-6.46,17-4.67,26.17,1.63,8.27-1.94,14.7-5,21.75-2.26,5.18-1.08,11.22-.62,16.88.15,2,1,3.77,3.59,3.22a1.37,1.37,0,0,1,.34.91c-3.86,4.51-3.54,6.62,1.47,9.92,4,8,10.36,10.43,18.78,8l3.92-.27c-8.89-9.86-9.21-18.55-1.28-30,1.52-2.2,1.49-3.73-.9-5.19-3.45-2.08-3.74-4.72-.18-6.74,3.1-1.75,3.76-4.62,4-7.45.33-4.58-.56-9.53,6.55-9.19.73,0,2-1.18,2.2-2,1-4.29,4.49-5.22,8-6.09,2-.49,3-2.2,4.55-3.15,4.12-2.59-1.35-6.87,1.83-9.12,2.78-2,7.17-.55,9.32-4.4a74.28,74.28,0,0,1,10.25-14.16,10.47,10.47,0,0,0,2.62-5.65c1.38-9.84,5.45-13.71,15.62-15.1,2.39-.33,4.87-.93,6-3,2.64-5,6.19-10,5.93-15.78-.34-8,2.57-14.13,7.53-20.06,2.78-3.33,5.21-9.35,1.8-12-4.31-3.38-8.85-7.61-15.17-8.21-11.65-1.1-20.91-6.74-26.8-16.85-2.91-5-7.48-7.86-12.11-7.86-7.5,0-11.86-3.82-16.29-8.69-2.61-2.87-5.7-4.75-10-3.78-4,.9-7.83-.28-11.52-2-5.88-2.82-12.89-3.38-17.35.58s-7.6,5.67-14.13,5.22c-9.55-.66-11.06-.47-10.7-10.14.3-8.4-.2-9.19-8.32-9.37-4.19-.09-5.3-1.48-3.95-5.36.54-1.57.37-3.43,1-4.95,2.61-6.14-1.52-5.36-5.16-5.28-2.88.08-3.64,2.37-4.95,4.26-4,5.86-11.14,5.65-15.25-.13-3.5-4.92-2.8-10.43-2.8-15.9,1.58-2.27-.27-4.59.06-6.89,4.76-4.86,10-8.3,17.32-6.6,2.25.53,4.44-.72,6.63-1.56,8.58-3.29,14.27-.75,17.51,6.36,1.28,2.78.63,9.25,5.2,7.7,5.4-1.83,1.39-7,.23-10.32-2.06-5.88-1.75-10.31,3.68-14.34s10.09-8.33,11.52-15.72c1.25-6.51,5-12,12-14.18,1.53-.47,1.47-1.64,1.67-3,1.1-7.5,5.88-9.84,12.62-6.21,1.06.57,2.16.76,2.93.06,3-2.74,7.74-3.17,9.79-7.22-5.17.34-8.68-1.6-10.59-6.8-1.28-3.46,2.18-8.79-4.09-10.55-.63-.18.91-2.61,2.49-2.74a31.45,31.45,0,0,1,5,.36c4.79.37,9.64,1.18,14-1.94,1.45-1,2.9-3.27,4.81-1.5,1.49,1.4-.32,3.11-.89,4.58-1.81,4.68-6.91,10.43,3.82,10.52a2.47,2.47,0,0,1,1.66.81c2.26,2.56,6.51,3.45,7.63,1.46,1.85-3.29-1.3-6.55-3.93-9-.85-.76-2.53-.55-3.5-1.22-1.51-1-2.91-2.08-2-4.63,3.17-8.64.82-15.42-7.07-20.66-2.86-1.9-6.17-3.74-6.75-7.16-1.08-6.26-4.49-11.31-7.16-16.76-.63-1.29-.66-3.4-2.37-3.34-1.91.06-2.24,2.11-2.73,3.73-.85,2.84-2.52,5.27-5.74,4.67-2.86-.52-5.21-2.91-4.93-5.83.57-5.94-3.12-8.38-6.84-12-4.06-3.88-8.79-1.78-12.81-3.78-3.33-1.65-4.52.16-4.39,3.55.22,5.36,2.11,10.8-.82,16-1,1.87.39,3.06,1.52,4.38,5.77,6.68,5.91,9-.51,14.66-3.45,3.06-4.82,6-3.42,10.42.82,2.56.65,5.93-2,6.55-3.48.81-1.57-2.87-2.28-4.47-.16-.38-.42-.72-.62-1.09-3.71-6.54-6.88-13.67-16.17-13.68-.8,0-1.73-1.14-2.37-2-2.33-3-5.67-4.33-9-5.62-10.23-4-13.38-11.4-9.22-21.24,1.43-3.4,3.79-6.05,5.89-8.93,5.31-7.23,14.2-11.78,16-21.65.35-1.94,1.38-2.14,3.62-1.76,5.76,1,11.08-6.05,8.64-11.3-2.19-4.68.42-9.34-.62-14.11-.39-1.8,4,1,6.07-.34a9.51,9.51,0,0,0,2.4-2c2.29-2.92,3.54-1.41,4,1.09a10.17,10.17,0,0,0,6.73,8c-1,2.18-2.62,2.67-4.26,3.15-2.59.74-2.85,2.86-2.74,5.05.06,1.54.52,3.11,2.06,3.64a4.39,4.39,0,0,0,5.57-1.7c1.47-2.35,3.29-3.24,5.82-1.93,1.16.6,2.4,2,1.16,3-5,4-6.7,11.17-13.17,13.76a3.79,3.79,0,0,0-2.54,4.57c.54,2.31,2.48,3,4.45,2.41,6.53-1.79,9.93,1.71,13.45,6.62,3.24,4.51,8.44,6.51,14.57,7.34-1.06-2.91-1.76-4.84-2.47-6.78l.23-.29c2.06.47,3.9,3.71,5.92,1.69,1.66-1.65,1-4.24.61-7-.7-4.3-4.69-5.23-5.72-8.63-.54-1.81-2.15-3.77-.27-5.15,2.42-1.79,3,1,4,2.41,4.33,5.91,5.1,5.91,8.72-.09.33-.81.65-1.62,1-2.44,2.61-5.74-2.52-7.12-5.45-9.73-3.66-2.49-7.24-5.06-10.07-8.52.61-1.85,1.23-3.69,1.83-5.53l-.8-1.48c.46-3.25-.18-6-3.44-7.54-.81-4.29-5-4.84-7.85-5.91-2.25-.85-1.4-6.46-5.54-3.45h0l-.31,2.12-.1,0c-1.4-1.9-2.69-3.86-2.49-6.4.1-.11.25-.2.29-.33s-.15-.28-.23-.28a1.21,1.21,0,0,0-.4.2,1,1,0,0,0-.62.36c-.37-3.68-4.67-5-5.48-7.44-3.23-9.89-8-11.92-15.47-5.53-1.64-1.68-3.09-3.26-5.87-1.61C267.71,85,266.38,88,267,91a15.89,15.89,0,0,1-.91,8.93c-1.35-5.53-2.86-11.07,1.14-16.27.7-.9,2.45-1.43,1.72-3s-2.62-1.22-3.92-1.09a8.79,8.79,0,0,0-4,1.62c-3.68,2.64-8.16,17.51-6.43,21.63.27.63,1.83.72,2.81,1.05a8.87,8.87,0,0,0,6.49,10.71c3.76,1.09,3.87,2.61,3.83,5.6-.06,4.68-1.25,8.39-6.5,9.95-1-4.1-1.1-8.57-6.74-9.63-1.81-.34-5.11-4-5.11-4.15,1.95-8.34-6.89-14.38-4.73-22.67.35-1.33-1-2.21-2.11-2.84a2.09,2.09,0,0,1,2.53-1.36c8.2,2,6.68-6,8.6-9.4,1.72-3-3.49-1.21-5.22-2.67-2.87-2.44-6.72-1.79-8.06,1.07-1.86,3.95-4.12,8.81.72,12.77A8.23,8.23,0,0,1,240,97.38c-4.24,6.12-2.92,13-2.85,19.84-1.81.06-3.53-2.77-5.36.18-1.34,2.14-3.62,4-1.92,6.7,3.33,5.22.57,6.5-4,7.31-6,1-10.07-2-13.76-5.93-3.25-3.45-6.59-1-8.11,1-2.87,3.63,1.08,1.84,2.4,2.2.8.2.7,1,.16,1.41-3,2.12.42,5.29-1.47,7.81-2.1-4.84-5.38-6.7-10.79-5.76-3.16.55-10.08,4-7.4-5.09.11-.37-.56-1.36-1-1.45-7.44-1.54-13.64-5.86-20.39-9-1.15-.52-2.31.37-3.44,1.08-3.71,2.32-8.25.82-10.35-3-.9-1.64-1.33-5.3-3.9-3.67-3.47,2.21-7.4,2.56-11,4.26-8.87,4.21-18.06,6.94-27.21.19a8.94,8.94,0,0,0-4.1-1.45c-11-1.31-21.69-4.23-32.36-7.11-7.48-2-19.68,3.22-23,10.32-1.28,2.74-2.24,5.19-5.62,6.22-2.25.69-4.41,4-2.25,5.38,4.24,2.79,4.57,9.44,10.66,10.1a2.51,2.51,0,0,1,2.16,3.29c-.52,1.55-2,2-3.6,2-1.94.1-2.82-1.47-4.19-2.34-4.59-2.92-6.68,1.8-9.49,3.79C34.74,147.85,38.4,148.79,39,150.4Zm263.32-47c-.06.3-.35.56-1,.78h0C301.93,103.93,302.21,103.66,302.28,103.37Z"/><polygon class="cls-1" points="732.12 90.66 732.12 90.66 727.45 95.16 727.45 95.16 732.12 90.66"/><path class="cls-1" d="M723.12,92.35c-3.07,2.43-5,.59-7-2.37,1.3,6.64-6.46,8.55-5.36,15.91-2.89-5-1.17-8.21-.53-11.39,1-5.05-3-6.38-6.05-7.47s-4.77,2.05-5.26,4.58c-1,5.28-3.46,9.77-6,14.42-2.29,4.25-1,8.86,1.71,12.86.94,1.38,2,2.67,3,4.05a6.2,6.2,0,0,1,.37.63l29.45-28.41C725.76,94.69,724.14,94.08,723.12,92.35Z"/><path class="cls-1" d="M526.24,283.94c-7.39.72-15.34-1.83-22.05,2.37a13,13,0,0,1-9.28,2.2c-6.17-3.69-7.49,1.84-9.91,5.26-3,.87-5,2.49-4.89,5.94-3.13,1.63-3.56,3.23,0,4.8-3.61,3.63-6.47,7.46-11.66,10-5.58,2.77-7.14,10.87-10.43,16.67-.6,1.05-.17,2,.24,3,2.68,6.6,2.1,13.31.6,20l73.71-71.11a13,13,0,0,0-2.93,1.06C528.42,284.79,527.19,283.84,526.24,283.94Z"/><path class="cls-1" d="M767.61,56.14c-2.78,2-5.5,4.09-9,4.76-5,1.27-8.79,4.66-12.31,8.11-1.09,1.07-2.76,2.47-1,5.88,1.46,2.86-3.79,6.39-8.26,6.55-4.18.15-5.42,2.36-5.21,6.18a21.78,21.78,0,0,0,.3,3l36.56-35.27Z"/><polygon class="cls-1" points="547.07 269.16 532.6 283.12 532.6 283.12 547.07 269.16 547.07 269.16"/><path class="cls-1" d="M555.21,261.31a48.07,48.07,0,0,1-10-8.94c-.77-1-2-2.84-3.59-1.43-1.39,1.25-2.31,3.19-.77,5.06,1.87,2.27,4.14,4.28,4.18,7.55a15,15,0,0,1,5.59,2.2l-3.54,3.41a6.74,6.74,0,0,1-1.05-2.78l-1.05-.73c-5.16.14-8-3.17-10.09-7.21s-4.48-4.52-7.86-1.61c-1.09.94-2.68,2.48-3.63,2.22-9.48-2.6-10.29,7.52-15.76,10.77-1.8,1.07-2.35,4.25-3.46,6.47-.16,1.43,0,3-1.38,4-4.59,4.34-17.73,4.81-21.34.5a8.76,8.76,0,0,1-1.87-7.12,46.67,46.67,0,0,0,.77-6.26c.3-10.22.26-10,10.8-9.51,3.53.17,8.69,3,10.27-2.64,1.5-5.37,0-10.45-5.21-13.69-1.2-.75-3.12-1.12-2.88-2.94.3-2.3,2.43-1.82,4-2,3.08-.35,5-3.35,8.26-3.6,1.17-.09,3.45-1.54,2.9-3.53s-2.74-1.47-4.34-1.33c-3.74.33-7.46.78-11.19,1.18l-1.4,1.12-.07-.07.07.07-.37.19.17-.38h0l1.07-1.48h0c1-5-1.86-8.21-6.42-7-1.59.42-3,1.49-4.58,2-1.4.48-3,.75-4-.84-2-3.47,2.68-14.57,6.74-15.39,3.06-.62,6.43-.12,4.88,4.42-.77,2.26-.2,3.21,1.62,3.86,1.6.58,3.39.92,4.78-.39,1.58-1.48.7-3.16-.15-4.62a41.18,41.18,0,0,0-3.48-5.23c-6.28-7.71-5.32-11.53,3.46-14.95,1.61,6.93,3.7,13.75,7.81,19.67,2.92,4.2,6.57,7.73,7.45,13.25.66,4.16,3.83,2.09,4.91.44a29.29,29.29,0,0,1,12-10.66c3.1-1.51,1-5.41.82-8.14-.29-4.76.65-8.29,6.26-9.64.4,4.41,1.57,8.67-.11,12.61-1,2.35.52,3.27,1.46,3.1,4.82-.89,9.48,2.47,14.32.24,2.53-1.16,4.77-2.24,8.22-1.17,3.22,1,5.81-2.32,6.23-6.23s-.65-9.14,6.87-6.71c2.81.91,2.41-3,1.7-4.69-1-2.56-2.58-4.6-.43-7.51,1.6-2.15-.54-2.88-2.29-3.15-4.36-.68-4-3.62-4.8-7.2-2.06-9.17,3.07-14.64,8.1-20.55,1.35-1.59,3-3.31,1.84-5.65-1-2-3-2.2-4.91-2.13-2.71.11-4.6,1.65-4.71,4.23-.25,5.49-3.69,8.61-7.38,11.92-6.45,5.79-7,11.2-1.73,18.09,2.2,2.88,1.19,4.67-.84,6.44a10.83,10.83,0,0,0-3.74,6.38c-1.73,9.07-3.51,10.61-13.45,11.93,1.35-2.68-.18-15.93-2-17.87s-3.43-.24-4.88.79c-2.48,1.77-4.44,5.09-8.12,3.53-3.89-1.65-2.85-5.77-3.69-8.89-2.44-9,.13-15.64,8.61-20.5,3.36-1.92,5.45-6.22,7.55-9.92,2.73-4.79,2.82-11.07,8.62-14.27,1.31-.72,1.94-4.45.61-6.53a5.77,5.77,0,0,1,1.08-7.5c4.3-4.19,8.79-8.91,14.15-11.07,4.86-2,9.12-4.89,13.94-6.8,5-2,11.45-1.29,13.1,3.21,2.64,7.17,8.78,8.41,14.52,10.29,7.15,2.34,12.07,7.55,17.22,12.44a5.54,5.54,0,0,1,.59,7.55c-1.85,2.69-4.26,4.33-7.48,3.51-4.19-1.07-8.27-2.58-13.63-4.3a28.84,28.84,0,0,1,4.13,12.49c.11,1.48,1.44,3,2.51,4.24s2.68,3.5,4.66,2.4c2.56-1.42-1.17-3.2-.07-5.46,4.82,1.52,8.35.34,9.09-5.56.13-1.05,1.48-2,2.38-2.9,6.66-6.53,6.7-6.52,6.59-16.93,0-.93-.18-1.69.88-1.88a6.3,6.3,0,0,1,5.88,1.5c.9.89,1.64,2.11.86,3.4-.4.65-1.36.93-1.95,1.5-2,2-1.07,4.09.48,5.52,2,1.82,3.45.18,4.52-1.54,4.38-7.08,11.3-10.73,18.85-12.73,4.59-1.21,9.71,1.68,14.57-.5.86-.38,2.29.33,2.75-.87.63-1.62-1.71-4.6,2.15-4.7,3.59-.09,7.09-.12,10.05,2.69,2.11,2,4.72,3.48,7.06,5.25a11,11,0,0,1,.93.88c.59.57,1.22,1,2.17.28a2,2,0,0,0,.41-2.76l29.45-28.41c1.8.5,3.68.84,5,2.19,1.15,1.15,2.56,3.07,4.14,1.35,1.42-1.55,0-3.27-1.57-4.07a5.28,5.28,0,0,1-2.93-4l36.56-35.27c.53-.35,1.05-.75,1.58-1.15,2.37-1.8,4.74-3.53,7.71.21a1.26,1.26,0,0,0,2.15-.09c2.54-3.89,8-4.56,9.06-10.68,1.22-7.16,6.5-8.48,12.52-5.65,2.91,1.37,1.61,3.4,2.24,5.11,2.11,4.25,6.84,3.16,10.14,5,9.52,1.44,11,3.28,10.58,12.56a41.36,41.36,0,0,1-.73,7.47c-2.21,9.55,0,12.53,9.3,13.48,2.83.29,5.2.59,7.53,3.33,4.21,4.94,8.36,3.54,10.13-2.59,1.43-5,3.82-5.74,8.1-2.59a13.45,13.45,0,0,0,2,1.48c7.81,3.72,8.78,5.54,6.57,13.83-1.28,4.81,1.41,8.12,3.9,11.5.76,1,2.55,1.4,3.09-.22,2.32-6.92,8.62-5.33,13.49-6.25,3.93-.74,7.44-1,8.3-5.86.45-2.54,4.25-1.91,4.77-4.58l-.14-.5.5.11h0c5.45,1.4,10.83,3.34,16.36,4,6.14.78,10.14,3.87,12.51,9.16,2,4.38,5,5.25,9.2,4.09,9.53-2.64,12.13-1.2,14.27,8.23.58,2.57,2.5,3.15,4.21,2.65,6.26-1.81,13.22,3,19.23-2.43,1.26-1.14,4.31.06,2.45,3.32-1.29,2.26-.11,4,1.95,4.31,2.89.48,2.78-1.67,2.32-3.74-.58-2.57.32-4.3,3.08-4.21,9.1.29,18.06,1.13,24.38,9V153c-4-.06-6.11,1.53-4.75,5.81,1.53,4.8.9,7-4.91,8.87-6.08,2-11.16,7.23-16.44,11.34-1.76,1.37-3,2.76-5.43,1.62-1.1-.52-2.83-1.29-3.51-.07-3.35,6-13.83-1.32-15.13,8.36-.21,1.56-1.39,2.68-.11,4.57,2.17,3.21.91,6.07-.15,9.91-1.93,7-8.31,10.15-10.27,16.33-.85,2.66-2.52,3.22-4.66,3.23-2.74,0-2.31-2.45-2.86-4.16-4.76-14.74,2.08-24.9,12.6-34.17,5.05-4.45,10.26-9.46,10.45-17.62-4.53.75-2.87,6.71-7.11,7.79-2.3.58-3.86,2.73-5.1-1-.7-2.11-2.6-2.58-4.62-2.53-.94,0-12.64,9.91-12.41,10.68a21.59,21.59,0,0,0,1.91,3.72c-3.69,2.14-7,2.05-11.15.25-8.31-3.6-22.67.89-28.76,7.91-3.45,4-7.24,7.65-10.71,11.6-1.09,1.24-3.53,2.48-1.62,4.7,1.72,2,4.14,4.82,6.57,3.38,3.31-2,5-.87,6.9,1.41,1,1.17,2.25.87,3.5.53,1-.28,2.61-.65,2.8.42,1.06,5.9,3.18,12.09,2.19,17.69-.61,3.44-3.91,6.47-2.31,10.85.36,1-.74,2.7-3,3.46.55-5.9,1.23-11.46,1.5-17,.11-2.34.53-6-2.88-6-2.71,0-2.73,3.39-2.85,5.62-.45,8.52-5.32,14.71-10.51,20.77-.55.64-1.45,1.13-1.69,1.85-1.89,5.64-5.48,7.64-11.58,7.63-4.25,0-4.73,6.11-7.61,8.39-4.68,3.7-2.49,6.73-.68,10.38a14.62,14.62,0,0,1,1.54,5.44c.26,4.09-3.09,5.6-6,6.15-3.84.72-2.6-2.83-2.74-4.83-.57-8-4.17-11.6-11.93-11.5a3.25,3.25,0,0,1-3.28-2.41L844,272c-1.88.4-4,.76-4.14,3.15s2.22,2.73,3.73,3.75,3.81.53,5,2.36c-.33,1.87-2.09,1.93-3.22,2.69-3.62,2.42-5,4.71-.86,8.21s5,9.17,3.64,13.87c-2,7-5,13.37-11.7,18.1-5.47,3.83-10.69,7.06-17.17,8.39-2.31.47-3.48,1.84-3,4.6s-1.31,5-3.92,4.48c-3.71-.74-1.14-3-.44-4.79,1.16-2.92-.29-3.95-3-3.8s-4.54,1.85-6.11,4c-1.73,2.37-.14,3.94,1.1,5.6a32.34,32.34,0,0,0,3.6,4.4c9.09,8.44,3.24,17.53-5.4,22.12-1.89,1-2.32-.25-3.36-1.45-3.34-3.91-6.11-8.58-11.44-10.31-3.75,8.33-2.63,13.08,4.37,18.94,2.51,2.1,4.37,4.49,4.15,8.08-.47,7.45,5.25,11.59,9.05,16.77,1.08,1.47,2.81.47,4.18,1.75-1.23,2.3-5.51,3.73-3.47,7.07,1.8,2.94,5.15,2.61,8.42,2.58,4.31,0,9.52-1,11.92,5.33-16.43.45-28.82-4.62-38.33-18.46-3.79-5.52-5.85-13.07-12.74-16.45-1.07-.52-1.61-1.91-1.52-3.56,5.72-2.29,7.78,4.89,12.49,5l.89-.89c-.12-4.31-1-8.2-4.07-11.63s-1.5-8.13-1.92-12.21a71.62,71.62,0,0,0-1.41-8.66c-.55-2.4-.82-5.45-4.72-3-1.38.85-2.36-.29-2.59-1.74-.51-3.16-3.07-5-4.75-7.34-6.19-8.73-12.13-9-20.59-1.67-5.52,4.75-9.95,11-17.37,13.29l.37,2.92a3.22,3.22,0,0,1,1.19,3.4c-1.24,5.12.21,9.5,3.16,13.64,1.66,2.34,2,5-.84,6.52-3.11,1.62-3.09-1.67-4-3.3-.75-1.32-1.76-3.05-3.16-2.78-8.34,1.64-8.33-5.71-10-10-2.44-6.39-6.14-12.5-6.11-19.74,0-4.69-4.17-5.81-7.22-7.83-3.38-3.7-7.5-6.8-9.6-11.56-1-2.32-2.86-1-4.32-1.07-5.54-.08-11.12,1.06-16.62-.16-2.48-.55-5.71-.09-6.66-3.61a2.28,2.28,0,0,0-3-1.58c-7.72,2.46-11.34-3.24-15.36-7.8-1.63-1.85-2.94-2.05-4.75-.84s-1.39,2.82-.24,4.29c1.93,2.47,2.69,6,6.37,6.89a2.34,2.34,0,0,1,1.45,1c1,2-1.47,6.18,4.15,5.27,3.38-.54,5-2.64,7.15-4.44a13.87,13.87,0,0,1,2.1-1.1c-.43,3.9,1.37,5.87,4.69,7,4.33,1.51,5.69,3.72,2.53,8.28a36.69,36.69,0,0,1-15.6,13.22c-4.85,2.24-9.81,4.33-14.79,6.36-1.29,4.11-5.25,3.12-8,3.64-3.61.69-5.21,2.17-5.07,5.72,1.72,2.47,2.62,4.55,6.56,1.53,3.12-2.39,8.25-2.21,12.51-3,3.56-.68,2.62,2.61,2.23,3.63-3.35,8.91-6.42,18.12-15.77,22.89-5.35,5-9.15,11.55-15.83,15.12a34.25,34.25,0,0,0,2.07,21.34c1.61,3.69-.34,7.78.15,11.81.6,5-4.91,5.4-7.79,7.85-4.23,3.6-8.95,7.12-6.39,14.23,1.3,3.61.06,7.14-3.79,9-1.58.78-2.92,1.64-3.12,3.6-1,9.32-8.3,14.81-13.08,21.83-1.34,2-3.49,2.69-6,2.82-5,.24-10-.3-14.8,2-3.24,1.6-5-.51-6.11-3.47-1.39-3.72-2.94-7.39-4.41-11.08-8.07-10.67-5.63-25.39-13.92-36.08-2.94-3.79-1.08-8,1.29-11.68,3.42-7.6,2.76-15.12-.08-22.75a19,19,0,0,0-5.61-8.26c-4.66-3.83-5-8.19-3.16-13.58,2.23-6.41.75-8.35-6-9-1.84-.18-3.91.24-5.14-1.69-3.32-5.22-8.12-4.15-12.28-2.13-7.75,3.77-15.95,4-24.07,3.58-6.6-.35-11.25-5.54-15.41-10.06-2.27-2.46-4.09-5.06-7.19-6.62-4.6-2.33-5.67-5.92-3.07-10.49l73.71-71.11c3-.63,4.17,1.1,2.76,5.42-1.94,5.95,2.47,7.35,4.89,7.34,6,0,9.85,4.06,14.52,6.3,3.71,1.78,5,2.49,6.66-2.06,1.35-3.63,4.76-4.27,8.87-2.72,9.24,3.48,18.44,7.41,28.83,3.57,5.2-1.92,9.32-13.36,7.78-18.83-.48-1.69-2.06-1.53-3.08-.89a36.84,36.84,0,0,0-4.29,3.61c-3.78.27-7.35-1.1-11.34-.88s-7.3-4.42-8.13-9.77c-.93-6-3.5-6.85-8-4.18-2.36,1.41-3.15,3-1,4.85,3.88,3.4.12,5.67-1.52,7.09-3.05,2.65-3.77-1.35-4.69-2.92a48.26,48.26,0,0,1-4.33-9.74c-1-3.15-2.48-6-5.05-7.8l-.29-.21Z"/><path class="cls-1" d="M645.41,162.44"/><polygon class="cls-1" points="550.61 265.75 550.61 265.75 555.22 261.31 555.21 261.31 550.61 265.75"/><path class="cls-1" d="M551.15,270.85a5.06,5.06,0,0,0,1,5.33c2.49-1.18,3.65-3.52,5.1-5.58-2.22-1.59-4.3-3.42-6.62-4.85l-3.54,3.41A4.3,4.3,0,0,0,551.15,270.85Z"/><path class="cls-1" d="M929.54,496l0,0c9.47-9.47,10.55-21.56,2.63-31.61-8.31-10.54-16.72-21-22.75-33.11-.73-1.47-.65-3.64-3-3.31-2.13.3-2.09,2.34-2.44,4-.31,1.45-.56,2.91-.91,4.34-.47,1.95.27,5-2.38,5.29-3,.37-6.45.21-8.71-2.59a8.37,8.37,0,0,1-1.87-7.08c.27-1.47,1-4.08-1.48-4-4.5.11-8.75-1.12-13.13-1.57-3-.31-3.17,1.66-3.54,4-.59,3.72-2.65,5.25-6.77,4.38-6.34-1.35-14.67,5.65-15.36,12.43-2,3-4.16,5.65-8.34,4.82-3.65,1.5-8,1.38-10.78,4.91-2.79,2.24-6.39,4.12-3.73,8.71-.45,2.89-1.49,5.93-.4,8.7,2.8,7.13,4.81,14.32,4.45,22.1-.15,3.17,2.41,5.26,4.93,4.06,6.1-2.92,13.09-3.09,18.87-6a75.6,75.6,0,0,1,12.72-5.08c7.3-2.17,13.08-.1,17.68,6,.74,1,1,2.49,2.55,2.53,5.57.12,8.13,4.7,10.71,8.23,4.73,6.45,16.4,8.48,23,4.48C927.52,506.88,928.47,501.65,929.54,496Zm.19-3.53.05,0Z"/><path class="cls-1" d="M167.87,102.8c1.63-1.11,1.68-2.81,2.49-4.21,1.83-3.15,2.53-7.2,6.55-8.7-.67,1.94-1.4,3.86-2,5.82-1.46,4.89,1,9.4,2.86,13.26,1.25,2.62,6,1.77,9-.16,1.76-.6,3.1.46,4.54,1.15-1.73,4.17-6.31,1.86-9.13,4-1.05.78-3.54.27-3.71,2.33s1.6,3.31,3.38,4.1,4.39-.19,5.28,1.57c4.25,8.49,10.18,4.28,15.49,2,3.94-1.68,7.09-3.54,11.49-.45,2.82,2,6.79,1.1,8.68-2.49,1.43-2.71,3.36-6.39,0-8.6-10.11-6.58-10.31-16.33-9.37-26.64.24-1.71.58-3.48-2-3.66a5.85,5.85,0,0,0-4,1.28c-4,2.59-3.76,6.2-4.12,9.9-1.36-1.52-3.27-4.57-4-4.31-6.66,2.39-10.34-3-15.17-5.28l.32-.41h0a1,1,0,0,0-.9.11c-2.43-3.25-4-7.67-9.37-7-1.86-1-3.62-2.33-5.6-2.87-3.69-1-9.9-1.18-10,1.93-.12,6.79-2.8,13.24-2,19.93C157.54,103.2,162.67,106.32,167.87,102.8ZM184,83.66h0l-.94.7Z"/><path class="cls-1" d="M899.79,401c-4.17-.68-7.61-2.22-10.63,1.82a2.55,2.55,0,0,1-3.83.74,2.08,2.08,0,0,1-.85-2.74c.5-1.12,2.77-2.76-.06-3.09-3-.35-5.65-3.54-8.86-1.59-1.77,1.08-.55,2.39.37,3.67A17.57,17.57,0,0,0,887.22,407c2.79.55,6.55,2,6.56,4.17,0,6.41,4.75,6.64,8.62,8.9,3.5,2,5.58,1.81,8.2-.8,3.14-3.13,6-2.78,7.91,1.35,2.06,4.42,5.59,4.34,10.17,3.62C919.87,414.89,913.85,403.34,899.79,401Z"/><path class="cls-1" d="M833.63,403c3.86-6.53,5.15-13.77,4.88-22.57-.17-.24-.06-2.49-2.17-3.28a3.89,3.89,0,0,0-4.54,1.26,41.26,41.26,0,0,1-16.54,11.05,3.89,3.89,0,0,0-2.86,4.3c.27,6.47,13.62,14.52,19.25,11.54A6,6,0,0,0,833.63,403Z"/><path class="cls-1" d="M882.55,287.65c-5.82.64-10.63,4.78-10.86,9.57-.07,1.59-.55,3.8,1.35,4.5,2.35.87,2.62-1.52,3.12-3,.62-1.78,1.56-2.28,3.47-2.81,6.26-1.76,12.34-4.18,18.49-6.34,1.41-.5,3-1,3.26-2.65.83-5.37,3.89-10.34,3-15.49-.28-4.74-2.34-9.8,5.62-8.94,1.8.19,7-1,5.07-5.23-1.24-2.78-5.33-3.28-8.2-3.93-3-.69-2,2.84-2.72,4.59-.28.72-.94,2-1.24,1.9-5.85-1-3.18,3-2.9,5.14C901.4,275.74,893.23,286.48,882.55,287.65Z"/><path class="cls-1" d="M636,468.13c2,.15,3.83-1.1,4.56-3.62,2.68-9.25,5.37-18.5,7.77-27.82.51-2,0-4.57-1.94-5.7-2.42-1.42-3.11,1.4-4.19,2.65-2.08,2.4-3.93,5.25-7.12,6-4.11.93-5,3.61-4.38,7a15.57,15.57,0,0,1-1.39,9.71C626.79,461.72,630.45,468.29,636,468.13Z"/><path class="cls-1" d="M443.66,143.29c-1.18-.94-3.87,1.71-4.27,3.69-.49,2.39,1.71,1.62,3.06,1.6,2.42,0,2.21,1.07,2.11,3.19-.13,2.8-.27,6.53,2.7,8,3.93,2,8.36,3.43,11.69-1.47,2.15,1.23,2.72-1.4,4.23-1.73l0,0,2.43-3.06c2.23-1.47,4.23-3,2.21-6.05-1.75-2.6-3.33-4.9-7.29-4.85C455,142.64,449.7,148.1,443.66,143.29Z"/><path class="cls-1" d="M233.4,84.49c2.59-1.51,1.23-2.12.55-3.82-2-5.14-6.15,2.82-8.46-1.5-.32-.59-1.72,1.9-2.19,3.14-.71,1.86-.32,4.08-2.46,5.41-3.33,2.06-1.05,4.54.61,5.33,4.56,2.16,6.08,6.49,8.28,10.47,7-3.29,5.77-8.08,4.16-13.27C233.33,88.47,231.08,85.84,233.4,84.49Z"/><path class="cls-1" d="M217.33,49.91c-.19-.93-1.38-2.5-2.83-1.8-1.85.89-.32,2.45-.38,3.74-.35,8.64,10.92,8.64,11.9,16.24a9.22,9.22,0,0,0,1.76,0c8-.2,5.18-6.43,5.88-9.82.56-9-.85-13.18-10.55-7.27C222.69,51.27,218.39,55,217.33,49.91Z"/><path class="cls-1" d="M179.24,63.07c.63,3.16,2.73,5.92,6.34,3.27a3.9,3.9,0,0,1,1.68-.85,1.23,1.23,0,0,0,.7.32c.37.6.26,1.85.7,2.38-.77,1.75-1.71,3.51.33,5.06,1.62,1.23,3.05.36,4.66-.27,3.27-1.28,5.67-4.45,9.55-4.37,4.17.08,7.5-1.13,8-5.92.62-5.46-4.13-4.65-7.07-5.92-1.12-2.88-.33-6.32-2.09-8.33-3.68,1.38-6.36,3.33-1.86,6.78.37.29-.23,1.86-.38,2.84-.51,4.21-3,2.51-4.5,1.14-1-.89-1.56-2.32-3.1-2.67-1.88-3.72-7-6.71-8.6-4.84C181.32,54.39,178.35,58.61,179.24,63.07Zm9.28-6a.21.21,0,0,0-.14-.08A.2.2,0,0,1,188.52,57Z"/><path class="cls-1" d="M664,110.15c3.41,0,5.11-.9,2.41-4.23-2.24-2.76-2.86-5.92-3.08-9.38-.29-4.46,2.84-7.9,3.15-12.12l-2.6.36L662.75,86h0l1.18-1.19h0l2.6-.36c4-11.4,11-20.08,22.16-25.22,3-1.41,5.9-3.24,8.87-4.81,2.59-1.37,3.19-3.75,3.21-6.36a3.85,3.85,0,0,0-2.83-3.81c-2.76-.76-4.27,1.81-5.49,3.42-3,4-6.42,6.41-11.59,5.41-1.31-.25-2.07.58-3.16,1.2-8.47,4.89-12.54,12.64-14.82,21.7-5.88,2.77-5.33,9.58-8.69,13.93a1,1,0,0,0-.06,1.06l.64,5.88.18.08c-3.06-.42-3.75,1.3-3.18,3.8C652.66,104.66,660,110.15,664,110.15ZM660,95.21c.3-.46.58-.92.85-1.39C660.58,94.29,660.29,94.76,660,95.21Zm2.43-5.08a13.22,13.22,0,0,1-.51,1.52,13.23,13.23,0,0,0,.51-1.52,11.1,11.1,0,0,0,.38-3.3A11.1,11.1,0,0,1,662.43,90.13Z"/><path class="cls-1" d="M169.11,56.17c4.32-.88,7.27-4.23,11-6.24s2.35-6.41,1.73-9.75c-.48-2.6-2.75-1.84-4.56-1.07-2.76-.33-5,.2-5.57,3.45-2.18,2.75-4.4,5.47-6.52,8.26a4.1,4.1,0,0,0-.53,4.72C165.73,57.39,167.49,56.5,169.11,56.17Z"/><path class="cls-1" d="M794.28,28.22c3.22-.49,7-.28,8.67-3.45,1.9-3.55-1.52-5.62-3.48-8-.54-.64-1.06-1.31-1.59-2-.85-3.16-2.28-5.07-5.73-2.69-1.24,3.07-3.08,6-3.58,9.25C788,25.22,788.52,29.1,794.28,28.22Z"/><path class="cls-1" d="M272.45,150.38c-2-1.18-4.11-1.93-5.8-.36-2.42,2.24-1.64,5.51-1.43,8.38.15,2,.86,4.12,2.91,5.23.3.16,1,.12,1.17-.08,3-4.81,7.69-2.34,13-2.37C278.3,157.08,276.52,152.77,272.45,150.38Z"/><path class="cls-1" d="M993.56,500.28c4.85,6.75,2.19,15.18,5.69,23,2.71-4.21,5-7.8,7.32-11.41.62-1,.68-2.59-.52-2.5C999.29,509.91,997.85,503.38,993.56,500.28Z"/><path class="cls-1" d="M840.9,403.14c-.07.48,1.38,1.71,1.52,1.62,4-2.53,4.42,1.67,6.22,3.27,1,.88,2.13,2.53,3.5.46.71-1.07-3-10.24-4.47-10.55-1.71-.37-3.63-.27-2.91-2.82.59-2.07,2.53-1.92,4.18-1.95,2.35,0,5.15,2.79,7-1.41a60.71,60.71,0,0,0-6.68.05c-2.13.25-5.22-1.34-6.21.93C841.66,395.92,841.43,399.63,840.9,403.14Z"/><path class="cls-1" d="M899.07,67.41h0c.14,1,.42,2.75,1.49,2.05,3.07-2,5.94-.39,8.88-.2a7.33,7.33,0,0,0,4.19-8.76c-.92-3.58-4.89-3.08-7.92-3.37-.74-.95-1.49-2-2.88-1.6-1.85.58-1,2.34-1.33,3.57-2.91-1.28-5.22-8.17-9-1.34A9.76,9.76,0,0,0,892.94,68C895.27,71.64,897.52,72.45,899.07,67.41Zm1.41-4,0-.33Z"/><path class="cls-1" d="M270.1,331.09A40.15,40.15,0,0,1,293,337.67c.6.38,1.64.06,2.47.09,1.14,0,2.16-.24,2.34-1.51s-.62-1.91-1.81-2.08c-3.25-.44-5.56-2.77-8.37-4.08C282.52,327.72,277.25,325.58,270.1,331.09Z"/><path class="cls-1" d="M305.54,25.58c-4.62,3.71-1.72,7,1.67,7.67,4.19.78,7.2,6.76,12.56,3,.77-.55,1.31,1.66,1,2.94-2.38.9-5.33-.16-7.32,2.12-2,.63-5.3-1-5.66,2.29-.3,2.72,2.71,3.26,4.67,4.29,1.44.76,5.7-.38,1.86,3.69-1.64,1.73.85,4.46,3,3.76,3.2-1,6.34,1.71,9.78-1,1.87-1.49,6-.78,8.95,1.1,8.69,5.51,11.26,14.63,14.23,23.55.43,3.53-1.93,8,3.39,9.86a2.2,2.2,0,0,1,.31.9c-2.6.19-3.52,1.22-3,4.1,1.33,7.35,4.55,14.4,2.36,22.36-.72,2.6,1.39,6.42,6,4.19,1.09-.53,2.45-1.42,3.19.23.6,1.33-.57,2.29-1.47,3.2-4.27,4.34-5.3,9.65-5.29,15.59,0,6.45,4.19,11.32,5.75,17.22,1.21,4.6,2.54,10.07,7.46,12.94a1,1,0,0,1,.48.61c-.53,3,1,4.74,3.43,6,6.66-2.79,9.14,2.55,12.37,7.08,1.3-9.86,6.14-17.94,8.15-26.83,1.25-5.52,3.52-8.95,9.14-10.1a13.64,13.64,0,0,0,4.92-2.51c5.89-4.17,7.26-11.33,11.44-16.54,1.52.61-.35,3.24,1.27,2.92,10-2,17.71-7.6,23.46-15.61-3.86-2.33-8.42-2-12.94-1.9l0,0-.6-1.72c.93-.16,1.82-.35,1.23-1.72l.16-.13c2.09.21,4.17.42,3.39-2.82a2.18,2.18,0,0,0,0-1l.21-.29h0c2.81,0,3.43,2.34,4.85,4.07,2.71,3.31,5.12,3,6.35-1.42a9.45,9.45,0,0,0-2.33-7.78l-.18-1.32-.07-.57c2-3.36,3.06-6.84,1.36-10.67,4-3.6,0-7.35.19-11,4.89,2.8,8.27-1.08,9.68-4,1.27-2.63,4.11-6.69-.4-10.52-2.77-2.36-5.56-6.48-.62-10.57,1.81-1.5,2.17-4.44.19-6.77.85-3.18-1.63-4.09-3.62-5.32,3.73-3.78,3.31-5-2.53-7.27-.37-.47-1.06-.94-1.07-1.42-.05-8.35,8.27-14.42,6.16-23.55-.55-2.38,4.78-2.34,4.82-5.69H323.68c-1.72,1.85,2,.32,1.69,3.07-.62,5.42-3.1,9.21-6,13.21C311.2,14,309.68,22,305.54,25.58ZM435.43,103.2a1.43,1.43,0,0,0-.13.26A1.42,1.42,0,0,1,435.43,103.2Zm13.12-39.93c-.37-.15-.75-.26-1.09-.42h0c.34.17.72.28,1.09.42l1.81-1.51-1.81,1.51c.9.16,1.56,0,1.77-.64C450.11,63.3,449.45,63.43,448.55,63.27Z"/><path class="cls-1" d="M213.68,19.68c1.76.83,3.3,2.88,1.66,3.3-2.11.54-3.79.1-2.65,2.86,1.28,3.08,3.38,1,5.18.47,2.41,1.93,0,9,6.7,6.35,2.15,1.05,5.71,1.78,4.8-1.36-1.24-4.28,0-10.17-5.61-12.63-.79-2.55-3.17-2.68-5.16-3.4.63-2.91-1.46-4-3.49-3.94-1.53,0-3.91.4-4.23,2.84A5,5,0,0,0,213.68,19.68Z"/><path class="cls-1" d="M189.63,36.85c.18,2.14,2.46,3.47,5.35,2.45,2.53-.89,4.5-1.85,3.07-4.76-.7-1.43-.17-1.62.75-2.21a1.6,1.6,0,0,0,.82-2.12c-.6-1.24-1.76-1-2.72-.72-3.54,1.13-7,2.37-11.2,3.78C187.29,34.47,189.39,34,189.63,36.85Z"/><path class="cls-1" d="M923.14,70.14c2.55,1.24,5.42.74,6.46-1.9S927.92,65,926,64.32s-3.89-1.48-5.45-2.08c-3.12,0-3.95,1.21-2.64,3.57C919,67.93,921.11,69.15,923.14,70.14Z"/><path class="cls-1" d="M241,60.47c-4.07-.45-4.45,3.7-4.46,6.07,0,3.14,3.48,4.62,6,5.3,3,.8,2.91-2,2.83-3.47C245.43,64.32,244.92,60.9,241,60.47Z"/><path class="cls-1" d="M300.25,342.88c4.8,1.1,9.27-.1,14.8-1.4C306.6,335.58,303.32,336,300.25,342.88Z"/><path class="cls-1" d="M846.73,341.71c-4.53.43-2.2,4.72-3.59,6.91,0,1.49-.45,3.84,1.64,3.22a7.4,7.4,0,0,0,5.31-6.34C850.28,343.61,849,341.5,846.73,341.71Z"/><path class="cls-1" d="M904.49,85.55c1.62.2,4,1.19,4.31-.9.75-4.93-3.51-5.86-7.41-7.21C903.67,79.78,897.49,84.69,904.49,85.55Z"/><path class="cls-1" d="M852.61,371.62c2.75,1.3,1.61,7.41,6.37,5.11,2-.95,3.14-4.12,1.85-6.16C857.87,365.89,855.75,372.7,852.61,371.62Z"/><path class="cls-1" d="M852.61,371.62a2.25,2.25,0,0,0-.35-.15A2.48,2.48,0,0,0,852.61,371.62Z"/><path class="cls-1" d="M194.11,27.46c2.17-1.84,6.07,2,6.88-2.23.42-2.17-1.36-3.88-3.53-4.5-1.66-.47-8.54,4.47-8,5.6C190.56,28.36,193,25.39,194.11,27.46Z"/><path class="cls-1" d="M542.65,25.9l.33.41c-.22,4.15,1.36,7.7,3.66,11,.06,5.23,5.34,6.64,7.75,10.63,0-5.75,4.2-9.82,4.63-15.4.24-3.12,1.26-6.94,4.66-9,4.88-3,3-5.46-.68-7.82-2.05-1.33-3.19-2.85-.35-4.52v0c3.07.78,6.78-.75,9.09,2.87.7,1.09,2.11.78,3.29-.15a21.27,21.27,0,0,0,8-13H560.22c-2.52,1.66-1.34,7.22-6.71,6.18C552.5,7,552,9.5,552.28,11c.32,1.87.77,3.72,1.17,5.58.24,1.19-1,2.26-1,3.52,0-1.26,1.21-2.33,1-3.52l-2.53-1.53c-2.37-2.74-.43-6.7-2.69-9.9L546.6,8.73h0l-2.26,1c-.86-1.25-1.43-2.51-.26-3.9.8.07,1.81-.1,1.51-1-.36-1.09-1.11-.5-1.59.18-6.35-.22-7.22,1.07-5.81,8.56C535.71,23.4,536.07,24.41,542.65,25.9Z"/><path class="cls-1" d="M918,523.45c.45,1.6-.37,4.36,2.26,4.47,2.14.09,2-2.31,2.32-3.8s.14-3-2.21-3.24C919.47,521.45,917.4,521.37,918,523.45Z"/><path class="cls-1" d="M645.16,124.74a3.25,3.25,0,0,0,2.78-3c0-1.69-1.12-2.61-2.81-2.91-1.92.59-2.46,2.13-2.45,3.91A1.89,1.89,0,0,0,645.16,124.74Z"/><path class="cls-1" d="M284.8,123.22c-1.87.53-2.24,2-2.26,3.49a3.48,3.48,0,0,0,3.06,3.5c1.63.32,2.24-1.09,2-2.44A6.24,6.24,0,0,0,284.8,123.22Z"/><path class="cls-1" d="M922,411c3.39,1.14,5.86,1.7,8.41-.32C928,410.27,925.41,409.33,922,411Z"/><path class="cls-1" d="M849.82,361.17c.43,3.22.05,5.48,2.14,6.94.4.28,2.38-.61,2.51-1.2C855,364.44,853.08,363.28,849.82,361.17Z"/><path class="cls-1" d="M338.81,247.88c0-.42-.73-1.24-1.2-1.3-2.45-.33-2.08,1.71-2.48,3.1C336.45,249.23,338.59,250.41,338.81,247.88Z"/><path class="cls-1" d="M335.1,249.79h0s0-.08,0-.11l-.11,0h0a.29.29,0,0,1,0,.09h.12Z"/><path class="cls-1" d="M533.48,263.29a.74.74,0,0,0-1.23-.56,1.11,1.11,0,0,0-.4,1,7.37,7.37,0,0,0,1.14,1.52A6.72,6.72,0,0,0,533.48,263.29Z"/><path class="cls-1" d="M767.5,10.38c.08-.17.24-.36.21-.51s-.22-.21-.38-.3l-.71.36Z"/><path class="cls-1" d="M767.45,9.5h0c2.25-.63,4-.58,4,2.52s2,4.57,4.49,5.74c2.24.92,3.91,3.32,6.77,2.67,2.73.94,5.76-.78,4.93-2.69-2.27-5.2,3.55-10.84-1.36-15.41-.51-.48-2-.1-3,.16-1.5.41-1.86-.19-1.7-1.51H767.66l-.4,8.54h0l0,0Z"/><path class="cls-1" d="M464.25,157l-1-.48,0,0Z"/><path class="cls-1" d="M233.87,29a4.18,4.18,0,0,0,2.77,3.92,19.93,19.93,0,0,0,1.65,4c1.55,2.24,4.6-.6,6.28,1.64.5-.86,1.52-1.79,1.41-2.55-.4-2.72-2.59-1.67-4.34-1.91-2-.26-2.88-1.35-2.89-2.9a2.08,2.08,0,0,0,.36-1.88c2-4.17-1.06-6-3.65-8.08-1.09-.79-2.5-2.87-3.47-1.31-1.12,1.81-1.69,4.51.48,6.52C232,27.82,233,28.35,233.87,29Z"/><path class="cls-1" d="M285.13,321.32l.1.08h0l-.1-.08a36.71,36.71,0,0,0,1.63,4.52,2.51,2.51,0,0,0,1.93,1.14c1.05,0,1.09-1.27.78-1.85-.93-1.72-.77-4.87-4.23-3.75l0-.1Z"/><path class="cls-1" d="M285,321l.16.33.37-.18Z"/><path class="cls-1" d="M978.48,540.76c3.69,3.86,5.93.28,7.24-2.09,2.18-4,2.74-8.78,7-11.67-9.71,1.68-14.48,6.66-13.44,13h0C978.36,539.57,977.94,539.68,978.48,540.76Z"/><path class="cls-1" d="M779,633.57l.82,1.07C779.74,634.15,780.31,633.2,779,633.57Z"/></g><g id="Calque_1_-_copie_2" data-name="Calque 1 - copie 2"><path class="cls-2" d="M983.31,697.52c1.09-.06,1.26-1,1.35-1.74s-.18-1.67-1.21-1.82c-1.33-.19-1.89.69-2,1.79,0,0,0,0,0,.07C981.74,696.8,982.07,697.59,983.31,697.52Z"/><path class="cls-2" d="M983.37,690.69c0,.05,0,.1,0,.16l.59-.05Z"/><path class="cls-2" d="M969.67,752.67a8.71,8.71,0,0,1-.57-.69c-1.47-2-1.89-4.33-2.22-6.8-1.58-12,1.74-23,6-33.91-1.34-3.95,1-5.93,4.22-5.86,6,.12,4.8-3.87,4.85-7.29,0-.77-.46-1.54-.46-2.3l-.06-.24c-.45-2.05,2.48-2.7,2-4.74a2.25,2.25,0,0,1-.45,0c-.14,0-.3-.26-.36-.43-3.24-9.08-10-12.74-19-10.23-.15-.79-.29-1.59-.43-2.39-2.14-1.32-5.07-2.14-6.26-4.06-2.78-4.45-6.93-5.8-11.45-6.16-3.74-.3-4.27-10-10.26-3.38-.38.42-3.42-.44-3.71-1.26-1.08-3-3.37-2-5.24-2-6.34-.14-10.58-4.86-9.59-10.9-3.7,3.16-7.46.25-11.11-.06-10.85-.9-21-6.87-32.32-4.59-1.67.34-2.37-.73-3.53-1.71-4.66-3.88-12.15-4.72-14.05-1.07-2.31,4.43-6.4,5.11-9.9,6.95-4.71,2.48-16.1.32-17.92-2.82-3.08-5.31-5.63-5.43-9.6-.53-1.62,2-4,5.08-6.17,3.47-6.47-4.77-15.21-4-21.22-9.41-.82-.74-1.3-.28-2.08.13-6.47,3.38-7.78,2.54-8.9-5.61h0l-.07-.09a.44.44,0,0,0,0,.1c-4.51.43-4.74,3.76-4.5,7.12.25,3.54-1.34,6.05-4.6,6.15a46,46,0,0,0-9.82,1.11c-3.12.77-5.11,0-6-3.45-.28-1.07-2.05-4.15-3.17-2-3.79,7.18-16.81,1.87-17.21,13.18,0,.45-1.75.84-2.7,1.24-1.91.81-2.86,2-3.89,4.12-2.39,4.93-5.56,10-12.35,9.73-1.23-3.54-2.31-7.19-6.7-8.13-3.55.56-5.4-1.46-6.51-4.47-.39-1.08,0-2.44-2-2.34-8.29.42-16.27-2.36-24.57-2.49-3.11,0-6.18-2.78-9.27-4.28,2.65-4.11-2-5-3.48-6-4.41-2.89-9.09-1.39-13.26,1.43-3.5,2.37.68,4.05.6,6.23-6.69,1.89-14,2.71-20,6.06-4.32,2.44-11.85,3.7-10.76,12.08.26,2-2.92,3.68-2.86,6.31-3.34-.23-5.68-2.92-9-3.52-2.42-.43,0-2.68,0-4.11,0-3-2.77-5.68-4.62-4.61-4.33,2.5-9.78,1.35-13.68,5.83-4.38,5-10.32,7.54-17.79,5.23-6.11-1.89-12.34-4.14-19-3.7-2.08.14-4.32-3.45-6.11-.66-3.12,4.85-7.26,2.76-11.35,3.05-1.76.12-4.43.12-5.74.1-6.27-.11-12.5,4.89-19,.09-2.26-1.67-5.69-2.06-8.8.88-2.44,2.31-6.42,2.22-9.87,2.93-6.76,1.38-14,1.91-18.06,9.53-1.72,3.23-5,5.77-9.63,6.94-5.58,1.4-12.29,3-13.19,11.38-.31,2.84-3,7.19-7,6-5.49-1.64-6.72,2.59-5.9,5,2.47,7.24-8.42,10.83-4.26,18.06a2.49,2.49,0,0,1-1.3,1.11c-6.38.66-8.13,6.46-11.52,10.4-.59.69-.38,2.19-2,1.51-5-2.15-6,2.58-6,4.93-.22,6-3.21,10.39-6.17,15a.45.45,0,0,0-.63,0l-.38-1.59.08-2.8L404,761l1.25,0c3.26-3.53,2.43-5.58-2.14-6.82-2.88-.78-6.22-.49-8.36-3.43-1.24-1.7-1.78.34-2.69.85-4.27,2.37-7.63,8.35-13.86,3.62-.69-.53-2.36.25-3.58.42h0l-1.12-.57c1.42-1.76.22-3-.82-4.32a25.43,25.43,0,0,0-12.21-9c-.6-1.1-1.2-2.19-1.82-3.3-2.25-.93-3.76-3-5.68-4.37-5.44-4-11.64-6.92-16.26-12.14-2.53-2.86-3.33-5-1.73-8.65,2-4.65,5.77-9,4-14.74,3.75-6.74-1.5-13-1.64-19.64-.13-6-1.48-10.82,3.71-15.05,1.88-1.53.35-2.9-.59-4.31-1.41-2.09-4-4.6-3.67-6.44,1.32-6.64,3.91-13,3.54-20a.75.75,0,0,1,0-.23c-2.86-1.48-4.41,1.93-6.48,3-5.91,3-9.49,8.51-12.36,14-1.31,2.52-3.41,2.07-3.66,1.7-1.77-2.67-2.33-1-2.61.65a4.3,4.3,0,0,0,.3,1.72c.73-1,1.15-.73,2.24.34,2.46,2.43,2.74,13.17-.07,13.76-3.83.81-1.64,4.07-3.65,5.83-.65-1.78-.85-3.29-1.66-4.33-1.3-1.67-2.24-3.8-5.14-3.71-4.09.13-.79,2.86-1.62,3.88a7.57,7.57,0,0,1-4.87,3.09c-1.82.3-4.13-1.86-5.57.84.81,2.09,3.73,2.49,4.14,5.08-1.21.66-2.35,1.18-3.36,1.88s-3.21.13-3.09,2.51c1.34,1.56,2.64,0,3.9-.25,2.08-.35,4.61-2.78,6,.14.84,1.81-1.64,3.11-3.27,4.37-2.3,1.78-4.34,4.06.77,5.26,3.57.84,4.55,4.88,3.85,7-.9,2.68-4,2.7-6.41.1A6.32,6.32,0,0,0,293.8,698c-1.93-.17-4-2.18-5.77-.35-2.18,2.22,2.13,3.15,1.37,5.26-2.26,1.11-2.21,3.29-2.44,5.33-2-1-3.73-3.19-6.22-1.45-5.7,4-8.48,3-12.65-3.11-3.25-4.8-8.63-6-14.23-6.87s-13.31,3.43-15.76-6c-.35-1.34-1.65-1.76-3.1-1.42-4.39,1-9-.81-13.43,1.8-3.42,2-5.67,8.92-2.84,11.82,4.15,4.26,4.91,13.27,1.61,17.91-1.75,2.45-4.68,3.54-6.28,1.56s-3.71-3-5-5c-2.42-3.7-4.77-3.84-6.05.77-.5,1.81-1.23,2.64-2.93,2.28s-3.43-.91-2.54-3.27-.47-3.6-2.37-3.89c-10.14-1.58-20.09-4-30.08-6.3-2.41-.56-5.09,2.34-7.78-.22-3.8-3.62-6-1-6.81,2.55-.88,4.08-2.15,5.86-6.19,3.31a2.88,2.88,0,0,0-3,0c-6.94,3.23-14.32,5.47-21.49,7.95-2.77,1-6.14,9.3-10.55,1.57,0,0-1,.36-1,.58-.23,4.4-4,2.59-5.76,2.67-8,.4-9.84,7.72-14.45,11.91a3.17,3.17,0,0,0-1.3,2.36c-.28,6.76-4.8,7.43-9.89,6.67-3.34-.5-6.68.43-10.09-.8-2.27-.82-4.46.54-3.58,3.8,1.09,4-.57,5.24-4.55,5.4-7.1.29-12.1,4.08-12.51,8.89-4.55-1.91-9.35-2.15-14.14-2.36-10.41-.45-20.82-.84-30.89-3.95,0,8.21.27,16.43-.11,24.62-.2,4.48.55,6,5.62,6,29.78-.31,59.57-.15,89.35-.15H959.93c16.65,0,33.31-.08,50,.08,2.72,0,3.32-.52,3.25-3.26-.23-8.24-.08-16.5-.08-24.75-4.1-2.91-7.91-6.44-12.39-8.55-4.27-2-9.11-2.81-13.76-4l-1-.28-.63,0c-5.83-.37-11.39,0-15.3,5.27l-.26.36"/><path class="cls-2" d="M314.21,656.19l.2-.07.19.23a1,1,0,0,0,.08-.33c1.15-.53,1-1.33.81-2.17a20.24,20.24,0,0,0-1.22,2.1Z"/><path class="cls-2" d="M342.33,633.07a1.39,1.39,0,0,0-.4-1.11,1.1,1.1,0,0,0-1.06,0,1.66,1.66,0,0,0-.59.82,5.79,5.79,0,0,1,1.2.85C341.56,633.68,342.29,633.3,342.33,633.07Z"/><path class="cls-2" d="M23.83,152.38c.34-2.57,1.47-3.74,3.84-4.86,3.78-1.79,3.71-4.43.53-7.36-2.43-2.23-5.24-2.34-8.13-2.65-.83-.09-1.89,2.18-2.26.28-1.25-6.56-7.84-7.88-11.32-12.2-1.35-1.68-3-3.12-5.36-1.48v19c6.9,1.72,11.36,7.14,16.71,11.19C21,156.72,23.24,156.85,23.83,152.38Z"/><path class="cls-2" d="M238.65,3.77c-.78.06-2,0-1.8,1,.16.86,1.18,1.55,1.81,2.32a.83.83,0,0,1,.28.69L239,8c-1.24,3.59.22,4.87,3.72,4.41l0,0,.08,0,1.35,3.82c-3.58,3,1.78,3.79,1.5,6-.07,3.43.86,6.06,4.89,6.26l2.47.56c4.64.59,9.52-2.76,14,.88l.78-1,.21.15c-.38,2.18,1.49,4.43-.33,6.93-1.91-1.32-2.87-4.76-6-3.27-3.35,1.61-1.63,4.3-1.05,6.6.4,1.59-.83,2.24-1.36,3.3-2.68,4.06-5.64,7.49-11.31,6.09-3.09-.76-4.14-4.15-7.19-5.1-2.62-.81-6.06-.66-5.57,1.71.66,3.23,1.89,7.88,7,7.88,6.32,0,6.69,3.67,5.89,8.67-.72,4.5.54,11.1,4.59,10.59,6.14-.78,11.72,2.13,17.63.76,1.46-.34,2.58-1.94,4.62-.9,3,1.54,6.23.9,7.33-2.55s3.91-7.32-2.09-10.34c-4.53-2.28-7.71-.85-11.41.76-5.11,2.23-9.57,1.65-12.89-3.21-.47-.69-3-1.64-.71-2.33,2-.61.48-4,3.89-3.31,4.5,1,9.22.66,13.92.24,1.42-.13,7.14-5.28,6.88,2.3a2.62,2.62,0,0,0,1.59.23c3-1.33,5.73-3.14,7.2-6,.65-1.26,1.62-4.48-2.32-3.5l-.74-.74c.05-1.24.39-2.61-1.4-3l0-.14c5.21-2.18,7-5.29,2.73-9.6,1.46-2.17,2.75.69,4.84-.82,7.15-5.15,7.75-8.2,1.5-13.67,2.34-2.43,3.34-6.21,7.18-7.12,1.88-.28.16-3.87,3.21-3.33,4.13.73,4.5-2.38,4.83-5.34h-72.1L239,3.21A.79.79,0,0,1,238.65,3.77Z"/><path class="cls-2" d="M8.3,104.25c-.07-2.74-2.58-2.8-4.68-2.94-.83-.05-1.66,0-2.48-.06v6.35a22.4,22.4,0,0,0,3.09-.25C6.06,107,8.37,106.53,8.3,104.25Z"/><path class="cls-2" d="M39,150.4c2.53,7.48,8.08,4.8,12.56,3.63,3.48-.9,3.74.52,4.35,3,1.1,4.44-2.19,3.39-4.47,4-2.48.63-5.73-2.28-7.11.11-3.31,5.77-3.44,12.6-3.1,19,.19,3.33,4.78,3.25,7.69,4.09a3.49,3.49,0,0,1,2.68,2.46c.94,4.2,3.42,4.8,7.07,3.49A4.26,4.26,0,0,1,64,192.31c1.06,1.93-.14,3.55-1.38,5.13a19.76,19.76,0,0,1-7.63,6.4c-2.93,1.28-5.68,2.92-7.26,6.75,8.77-3.85,16.23-8.21,22.46-14.48,2.25-2.27,4.47-4.56,3.6-8.24-.3-1.26-1.64-3.85.3-3.45,2.95.6,5.57-3.41,7-1.4,3.5,4.89,7,1.43,8.88-.23,3.64-3.24,7.2-2.39,10.54-1.05A24.74,24.74,0,0,0,111,183.4c3.76-.71,6.21,1.92,9,3.6l2.14.6a.5.5,0,0,1,.42.46c1.78,3.24,5.69.72,7.78,2.82,5.08,5.08,7.55,12,11.51,17.88,5.55,8.25,9.39,17.6,18.24,23.12,4,2.51,4.43,7.63,2.76,9.65-4.79,5.79-2.35,11.5-2.43,17.39,3.85-.18,1.59-5,5-5.2a6.33,6.33,0,0,1,.56,1.8c-.09,4-7.16,7.35-.94,11.83a11.73,11.73,0,0,1-2,2.3c-3.26,2.21-2.93,2.06-1.77,6,3.5,11.8,14.43,17.84,20.74,27.44-.48,4,4.26,4.87,5,8.16.3,1.4-.94,3.59,2,3.5.57,0,1.24.37,1.48-.47.53-1.83-.35-3.31-1.39-4.62-2-2.58-4.78-4.82-3.11-8.71,5.1-.1,3.85,6,7.34,7.49.82,3.36,3,5.7,5.31,8.22,4.33,4.73,9.33,9.15,12,15.06,3.91,8.66,16.63,18.14,25.91,17.37a15.69,15.69,0,0,1,11.59,3.45,26.3,26.3,0,0,0,8.92,4.29c4.28,1.26,8.6,2.72,10.25,8.21,1.21,4,12.84,10,15,8.2,5-4.29,6.22.44,6.77,3.08,1,5,2.1,10.19-3.79,13.93-6.32,4-8.07,16.71-3.15,22.44,3.36,3.91,5.33,8.4,7.56,12.84,3.52,7,5,15.7,14.86,17.2l1.34.08a4.11,4.11,0,0,0,2.56,2.53c4.87,7.86.92,16.05.92,24.09a112.45,112.45,0,0,0-3.63,23.36c-.65,8.91-6.46,17-4.67,26.17,1.63,8.27-1.94,14.7-5,21.75-2.26,5.18-1.08,11.22-.62,16.88.15,2,1,3.77,3.59,3.22a1.37,1.37,0,0,1,.34.91c-3.86,4.51-3.54,6.62,1.47,9.92,4,8,10.36,10.43,18.78,8l3.92-.27c-8.89-9.86-9.21-18.55-1.28-30,1.52-2.2,1.49-3.73-.9-5.19-3.45-2.08-3.74-4.72-.18-6.74,3.1-1.75,3.76-4.62,4-7.45.33-4.58-.56-9.53,6.55-9.19.73,0,2-1.18,2.2-2,1-4.29,4.49-5.22,8-6.09,2-.49,3-2.2,4.55-3.15,4.12-2.59-1.35-6.87,1.83-9.12,2.78-2,7.17-.55,9.32-4.4a74.28,74.28,0,0,1,10.25-14.16,10.47,10.47,0,0,0,2.62-5.65c1.38-9.84,5.45-13.71,15.62-15.1,2.39-.33,4.87-.93,6-3,2.64-5,6.19-10,5.93-15.78-.34-8,2.57-14.13,7.53-20.06,2.78-3.33,5.21-9.35,1.8-12-4.31-3.38-8.85-7.61-15.17-8.21-11.65-1.1-20.91-6.74-26.8-16.85-2.91-5-7.48-7.86-12.11-7.86-7.5,0-11.86-3.82-16.29-8.69-2.61-2.87-5.7-4.75-10-3.78-4,.9-7.83-.28-11.52-2-5.88-2.82-12.89-3.38-17.35.58s-7.6,5.67-14.13,5.22c-9.55-.66-11.06-.47-10.7-10.14.3-8.4-.2-9.19-8.32-9.37-4.19-.09-5.3-1.48-3.95-5.36.54-1.57.37-3.43,1-4.95,2.61-6.14-1.52-5.36-5.16-5.28-2.88.08-3.64,2.37-4.95,4.26-4,5.86-11.14,5.65-15.25-.13-3.5-4.92-2.8-10.43-2.8-15.9,1.58-2.27-.27-4.59.06-6.89,4.76-4.86,10-8.3,17.32-6.6,2.25.53,4.44-.72,6.63-1.56,8.58-3.29,14.27-.75,17.51,6.36,1.28,2.78.63,9.25,5.2,7.7,5.4-1.83,1.39-7,.23-10.32-2.06-5.88-1.75-10.31,3.68-14.34s10.09-8.33,11.52-15.72c1.25-6.51,5-12,12-14.18,1.53-.47,1.47-1.64,1.67-3,1.1-7.5,5.88-9.84,12.62-6.21,1.06.57,2.16.76,2.93.06,3-2.74,7.74-3.17,9.79-7.22-5.17.34-8.68-1.6-10.59-6.8-1.28-3.46,2.18-8.79-4.09-10.55-.63-.18.91-2.61,2.49-2.74a31.45,31.45,0,0,1,5,.36c4.79.37,9.64,1.18,14-1.94,1.45-1,2.9-3.27,4.81-1.5,1.49,1.4-.32,3.11-.89,4.58-1.81,4.68-6.91,10.43,3.82,10.52a2.47,2.47,0,0,1,1.66.81c2.26,2.56,6.51,3.45,7.63,1.46,1.85-3.29-1.3-6.55-3.93-9-.85-.76-2.53-.55-3.5-1.22-1.51-1-2.91-2.08-2-4.63,3.17-8.64.82-15.42-7.07-20.66-2.86-1.9-6.17-3.74-6.75-7.16-1.08-6.26-4.49-11.31-7.16-16.76-.63-1.29-.66-3.4-2.37-3.34-1.91.06-2.24,2.11-2.73,3.73-.85,2.84-2.52,5.27-5.74,4.67-2.86-.52-5.21-2.91-4.93-5.83.57-5.94-3.12-8.38-6.84-12-4.06-3.88-8.79-1.78-12.81-3.78-3.33-1.65-4.52.16-4.39,3.55.22,5.36,2.11,10.8-.82,16-1,1.87.39,3.06,1.52,4.38,5.77,6.68,5.91,9-.51,14.66-3.45,3.06-4.82,6-3.42,10.42.82,2.56.65,5.93-2,6.55-3.48.81-1.57-2.87-2.28-4.47-.16-.38-.42-.72-.62-1.09-3.71-6.54-6.88-13.67-16.17-13.68-.8,0-1.73-1.14-2.37-2-2.33-3-5.67-4.33-9-5.62-10.23-4-13.38-11.4-9.22-21.24,1.43-3.4,3.79-6.05,5.89-8.93,5.31-7.23,14.2-11.78,16-21.65.35-1.94,1.38-2.14,3.62-1.76,5.76,1,11.08-6.05,8.64-11.3-2.19-4.68.42-9.34-.62-14.11-.39-1.8,4,1,6.07-.34a9.51,9.51,0,0,0,2.4-2c2.29-2.92,3.54-1.41,4,1.09a10.17,10.17,0,0,0,6.73,8c-1,2.18-2.62,2.67-4.26,3.15-2.59.74-2.85,2.86-2.74,5.05.06,1.54.52,3.11,2.06,3.64a4.39,4.39,0,0,0,5.57-1.7c1.47-2.35,3.29-3.24,5.82-1.93,1.16.6,2.4,2,1.16,3-5,4-6.7,11.17-13.17,13.76a3.79,3.79,0,0,0-2.54,4.57c.54,2.31,2.48,3,4.45,2.41,6.53-1.79,9.93,1.71,13.45,6.62,3.24,4.51,8.44,6.51,14.57,7.34-1.06-2.91-1.76-4.84-2.47-6.78l.23-.29c2.06.47,3.9,3.71,5.92,1.69,1.66-1.65,1-4.24.61-7-.7-4.3-4.69-5.23-5.72-8.63-.54-1.81-2.15-3.77-.27-5.15,2.42-1.79,3,1,4,2.41,4.33,5.91,5.1,5.91,8.72-.09.33-.81.65-1.62,1-2.44,2.61-5.74-2.52-7.12-5.45-9.73-3.66-2.49-7.24-5.06-10.07-8.52.61-1.85,1.23-3.69,1.83-5.53l-.8-1.48c.46-3.25-.18-6-3.44-7.54-.81-4.29-5-4.84-7.85-5.91-2.25-.85-1.4-6.46-5.54-3.45h0l-.31,2.12-.1,0c-1.4-1.9-2.69-3.86-2.49-6.4.1-.11.25-.2.29-.33s-.15-.28-.23-.28a1.21,1.21,0,0,0-.4.2,1,1,0,0,0-.62.36c-.37-3.68-4.67-5-5.48-7.44-3.23-9.89-8-11.92-15.47-5.53-1.64-1.68-3.09-3.26-5.87-1.61C267.71,85,266.38,88,267,91a15.89,15.89,0,0,1-.91,8.93c-1.35-5.53-2.86-11.07,1.14-16.27.7-.9,2.45-1.43,1.72-3s-2.62-1.22-3.92-1.09a8.79,8.79,0,0,0-4,1.62c-3.68,2.64-8.16,17.51-6.43,21.63.27.63,1.83.72,2.81,1.05a8.87,8.87,0,0,0,6.49,10.71c3.76,1.09,3.87,2.61,3.83,5.6-.06,4.68-1.25,8.39-6.5,9.95-1-4.1-1.1-8.57-6.74-9.63-1.81-.34-5.11-4-5.11-4.15,1.95-8.34-6.89-14.38-4.73-22.67.35-1.33-1-2.21-2.11-2.84a2.09,2.09,0,0,1,2.53-1.36c8.2,2,6.68-6,8.6-9.4,1.72-3-3.49-1.21-5.22-2.67-2.87-2.44-6.72-1.79-8.06,1.07-1.86,3.95-4.12,8.81.72,12.77A8.23,8.23,0,0,1,240,97.38c-4.24,6.12-2.92,13-2.85,19.84-1.81.06-3.53-2.77-5.36.18-1.34,2.14-3.62,4-1.92,6.7,3.33,5.22.57,6.5-4,7.31-6,1-10.07-2-13.76-5.93-3.25-3.45-6.59-1-8.11,1-2.87,3.63,1.08,1.84,2.4,2.2.8.2.7,1,.16,1.41-3,2.12.42,5.29-1.47,7.81-2.1-4.84-5.38-6.7-10.79-5.76-3.16.55-10.08,4-7.4-5.09.11-.37-.56-1.36-1-1.45-7.44-1.54-13.64-5.86-20.39-9-1.15-.52-2.31.37-3.44,1.08-3.71,2.32-8.25.82-10.35-3-.9-1.64-1.33-5.3-3.9-3.67-3.47,2.21-7.4,2.56-11,4.26-8.87,4.21-18.06,6.94-27.21.19a8.94,8.94,0,0,0-4.1-1.45c-11-1.31-21.69-4.23-32.36-7.11-7.48-2-19.68,3.22-23,10.32-1.28,2.74-2.24,5.19-5.62,6.22-2.25.69-4.41,4-2.25,5.38,4.24,2.79,4.57,9.44,10.66,10.1a2.51,2.51,0,0,1,2.16,3.29c-.52,1.55-2,2-3.6,2-1.94.1-2.82-1.47-4.19-2.34-4.59-2.92-6.68,1.8-9.49,3.79C34.74,147.85,38.4,148.79,39,150.4Zm263.32-47c-.06.3-.35.56-1,.78h0C301.93,103.93,302.21,103.66,302.28,103.37Z"/><path class="cls-2" d="M768.68,55.38l-1.07.75c-2.78,2-5.5,4.09-9,4.76-5,1.27-8.79,4.66-12.31,8.11-1.09,1.07-2.76,2.47-1,5.88,1.46,2.86-3.79,6.39-8.26,6.55-4.18.15-5.42,2.36-5.21,6.18.16,2.82.23,5.46,3.23,7,1.55.8,3,2.52,1.57,4.07-1.58,1.72-3-.2-4.14-1.35-2.62-2.63-7.25-1.43-9.36-5-3.07,2.43-5,.59-7-2.37,1.3,6.64-6.46,8.55-5.36,15.91-2.89-5-1.17-8.21-.53-11.39,1-5.05-3-6.38-6.05-7.47s-4.77,2.05-5.26,4.58c-1,5.28-3.46,9.77-6,14.42-2.29,4.25-1,8.86,1.71,12.86.94,1.38,2,2.67,3,4.05.74,1.1,1.23,2.43,0,3.39-1.43,1.09-2.15-.44-3.09-1.16-2.34-1.77-4.95-3.25-7.06-5.25-3-2.81-6.46-2.78-10.05-2.69-3.86.1-1.52,3.08-2.15,4.7-.46,1.2-1.9.49-2.75.87-4.86,2.18-10-.72-14.57.5-7.55,2-14.47,5.64-18.85,12.73-1.06,1.72-2.54,3.35-4.52,1.54C633,136.12,632,134,634.08,132c.58-.57,1.55-.85,1.95-1.5.78-1.29,0-2.5-.86-3.4a6.3,6.3,0,0,0-5.88-1.5c-1.05.19-.89.95-.88,1.88.1,10.41.06,10.4-6.59,16.93-.9.88-2.24,1.84-2.38,2.9-.74,5.9-4.27,7.09-9.09,5.56-1.1,2.26,2.63,4,.07,5.46-2,1.1-3.47-1-4.66-2.4s-2.4-2.76-2.51-4.24a28.84,28.84,0,0,0-4.13-12.49c5.36,1.72,9.44,3.23,13.63,4.3,3.23.82,5.63-.82,7.48-3.51a5.54,5.54,0,0,0-.59-7.55c-5.15-4.89-10.07-10.09-17.22-12.44-5.74-1.88-11.88-3.12-14.52-10.29-1.65-4.49-8.12-5.18-13.1-3.21-4.82,1.91-9.08,4.84-13.94,6.8-5.36,2.16-9.85,6.88-14.15,11.07a5.77,5.77,0,0,0-1.08,7.5c1.33,2.07.7,5.8-.61,6.53-5.8,3.2-5.89,9.48-8.62,14.27-2.1,3.7-4.19,8-7.55,9.92-8.48,4.85-11.06,11.45-8.61,20.5.84,3.12-.2,7.24,3.69,8.89,3.69,1.56,5.64-1.75,8.12-3.53,1.44-1,2.87-2.88,4.88-.79s3.39,15.19,2,17.87c9.95-1.33,11.72-2.86,13.45-11.93a10.83,10.83,0,0,1,3.74-6.38c2-1.78,3-3.57.84-6.44-5.28-6.89-4.72-12.3,1.73-18.09,3.69-3.31,7.14-6.44,7.38-11.92.12-2.58,2-4.12,4.71-4.23,2-.08,4,.12,4.91,2.13,1.12,2.34-.49,4.06-1.84,5.65-5,5.91-10.16,11.39-8.1,20.55.81,3.58.43,6.52,4.8,7.2,1.75.27,3.89,1,2.29,3.15-2.15,2.9-.62,4.95.43,7.51.71,1.72,1.1,5.6-1.7,4.69-7.51-2.43-6.44,2.68-6.87,6.71s-3,7.23-6.23,6.23c-3.46-1.07-5.7,0-8.22,1.17-4.85,2.23-9.51-1.14-14.32-.24-.94.17-2.46-.75-1.46-3.1,1.68-3.93.51-8.2.11-12.61-5.62,1.35-6.55,4.88-6.26,9.64.16,2.73,2.28,6.63-.82,8.14a29.29,29.29,0,0,0-12,10.66c-1.09,1.65-4.25,3.72-4.91-.44-.88-5.52-4.53-9.05-7.45-13.25-4.12-5.92-6.2-12.74-7.81-19.67-8.79,3.41-9.75,7.23-3.46,14.95a41.18,41.18,0,0,1,3.48,5.23c.86,1.46,1.73,3.14.15,4.62-1.4,1.31-3.18,1-4.78.39-1.82-.65-2.39-1.61-1.62-3.86,1.55-4.54-1.81-5-4.88-4.42-4.06.82-8.76,11.92-6.74,15.39.92,1.59,2.56,1.32,4,.84,1.58-.54,3-1.62,4.58-2,4.56-1.2,7.45,2,6.42,7h0l-1.07,1.48h0l-.17.38.37-.19-.07-.07.07.07,1.4-1.12c3.73-.4,7.46-.85,11.19-1.18,1.6-.14,3.76-.78,4.34,1.33s-1.73,3.45-2.9,3.53c-3.29.25-5.17,3.25-8.26,3.6-1.6.18-3.72-.3-4,2-.24,1.81,1.68,2.19,2.88,2.94,5.21,3.24,6.71,8.33,5.21,13.69-1.58,5.65-6.74,2.81-10.27,2.64-10.55-.5-10.5-.71-10.8,9.51a46.67,46.67,0,0,1-.77,6.26,8.76,8.76,0,0,0,1.87,7.12c3.61,4.32,16.75,3.84,21.34-.5,1.37-1,1.22-2.54,1.38-4,1.12-2.21,1.67-5.4,3.46-6.47,5.46-3.25,6.28-13.37,15.76-10.77.95.26,2.54-1.28,3.63-2.22,3.38-2.91,5.78-2.41,7.86,1.61s4.93,7.34,10.09,7.21l1.05.73c.5,2.9,2,4.65,5.13,4.47a5.06,5.06,0,0,0,1,5.33c2.49-1.18,3.65-3.52,5.1-5.58-3.84-2.75-7.24-6.26-12.21-7,0-3.27-2.31-5.28-4.18-7.55-1.53-1.87-.62-3.81.77-5.06,1.57-1.42,2.82.45,3.59,1.43a49,49,0,0,0,10.29,9.15c2.57,1.85,4.05,4.65,5.05,7.8a48.26,48.26,0,0,0,4.33,9.74c.92,1.57,1.64,5.57,4.69,2.92,1.64-1.43,5.4-3.69,1.52-7.09-2.14-1.88-1.35-3.44,1-4.85,4.48-2.67,7-1.81,8,4.18.83,5.35,4.07,10,8.13,9.77s7.56,1.15,11.34.88a36.84,36.84,0,0,1,4.29-3.61c1-.64,2.6-.8,3.08.89,1.54,5.47-2.57,16.91-7.78,18.83-10.39,3.83-19.59-.09-28.83-3.57-4.11-1.55-7.52-.91-8.87,2.72-1.69,4.54-3,3.84-6.66,2.06-4.67-2.24-8.49-6.34-14.52-6.3-2.42,0-6.83-1.39-4.89-7.34,1.81-5.53-.59-6.83-5.69-4.36-1.26.61-2.49-.34-3.43-.25-7.39.72-15.34-1.83-22.05,2.37a13,13,0,0,1-9.28,2.2c-6.17-3.69-7.49,1.84-9.91,5.26-3,.87-5,2.49-4.89,5.94-3.13,1.63-3.56,3.23,0,4.8-3.61,3.63-6.47,7.46-11.66,10-5.58,2.77-7.14,10.87-10.43,16.67-.6,1.05-.17,2,.24,3,2.68,6.6,2.1,13.31.6,20m0,0c-2.61,4.57-1.53,8.16,3.07,10.49,3.1,1.57,4.92,4.17,7.19,6.62,4.17,4.52,8.81,9.71,15.41,10.06,8.12.43,16.32.18,24.07-3.58,4.16-2,9-3.09,12.28,2.13,1.23,1.93,3.3,1.51,5.14,1.69,6.73.64,8.2,2.58,6,9-1.87,5.38-1.5,9.74,3.16,13.58a19,19,0,0,1,5.61,8.26c2.84,7.63,3.5,15.16.08,22.75-2.37,3.69-4.23,7.89-1.29,11.68,8.29,10.69,5.85,25.41,13.92,36.08,1.48,3.69,3,7.36,4.41,11.08,1.1,3,2.87,5.06,6.11,3.47,4.78-2.35,9.84-1.8,14.8-2,2.54-.13,4.69-.85,6-2.82,4.78-7,12.13-12.51,13.08-21.83.2-2,1.54-2.82,3.12-3.6,3.85-1.9,5.09-5.43,3.79-9-2.56-7.1,2.15-10.63,6.39-14.23,2.88-2.45,8.39-2.8,7.79-7.85-.48-4,1.47-8.13-.15-11.81A34.25,34.25,0,0,1,616.79,403c6.68-3.56,10.48-10.16,15.83-15.12,9.35-4.77,12.42-14,15.77-22.89.38-1,1.33-4.31-2.23-3.63-4.26.82-9.39.63-12.51,3-3.94,3-4.84.93-6.56-1.53-.14-3.55,1.46-5,5.07-5.72,2.74-.53,6.7.47,8-3.64,5-2,9.93-4.11,14.79-6.36a36.69,36.69,0,0,0,15.6-13.22c3.16-4.56,1.8-6.77-2.53-8.28-3.32-1.16-5.12-3.12-4.69-7a13.87,13.87,0,0,0-2.1,1.1c-2.17,1.8-3.77,3.9-7.15,4.44-5.63.9-3.15-3.26-4.15-5.27a2.34,2.34,0,0,0-1.45-1c-3.68-.87-4.45-4.42-6.37-6.89-1.15-1.47-1.67-3,.24-4.29s3.12-1,4.75.84c4,4.56,7.64,10.26,15.36,7.8a2.28,2.28,0,0,1,3,1.58c1,3.52,4.18,3.06,6.66,3.61,5.5,1.23,11.08.08,16.62.16,1.46,0,3.3-1.25,4.32,1.07,2.1,4.76,6.21,7.86,9.6,11.56,3.05,2,7.24,3.13,7.22,7.83,0,7.24,3.68,13.35,6.11,19.74,1.64,4.3,1.63,11.66,10,10,1.4-.28,2.41,1.46,3.16,2.78.93,1.63.91,4.93,4,3.3,2.87-1.5,2.51-4.18.84-6.52-2.95-4.14-4.4-8.52-3.16-13.64a3.22,3.22,0,0,0-1.19-3.4l-.37-2.92c7.42-2.26,11.86-8.54,17.37-13.29,8.46-7.29,14.4-7.06,20.59,1.67,1.68,2.37,4.25,4.18,4.75,7.34.23,1.45,1.22,2.6,2.59,1.74,3.91-2.42,4.18.63,4.72,3a71.62,71.62,0,0,1,1.41,8.66c.42,4.08-1.15,8.77,1.92,12.21s4,7.32,4.07,11.63l-.89.89c-4.72-.12-6.77-7.3-12.49-5-.09,1.65.46,3,1.52,3.56,6.89,3.38,8.95,10.93,12.74,16.45,9.51,13.84,21.9,18.91,38.33,18.46-2.4-6.38-7.6-5.37-11.92-5.33-3.27,0-6.63.36-8.42-2.58-2-3.33,2.24-4.77,3.47-7.07-1.36-1.28-3.1-.28-4.18-1.75-3.8-5.18-9.52-9.31-9.05-16.77.23-3.59-1.64-6-4.15-8.08-7-5.86-8.12-10.62-4.37-18.94,5.33,1.74,8.09,6.4,11.44,10.31,1,1.21,1.46,2.46,3.36,1.45,8.65-4.58,14.49-13.68,5.4-22.12a32.34,32.34,0,0,1-3.6-4.4c-1.25-1.66-2.83-3.22-1.1-5.6,1.56-2.15,3.35-3.84,6.11-4s4.15.88,3,3.8c-.7,1.76-3.26,4.05.44,4.79,2.61.52,4.35-1.78,3.92-4.48s.73-4.13,3-4.6c6.48-1.33,11.7-4.56,17.17-8.39,6.75-4.73,9.68-11.15,11.7-18.1,1.36-4.7.66-10.28-3.64-13.87s-2.76-5.79.86-8.21c1.14-.76,2.9-.83,3.22-2.69-1.15-1.83-3.42-1.33-5-2.36s-3.87-1.36-3.73-3.75,2.26-2.75,4.14-3.15l.57.41a3.25,3.25,0,0,0,3.28,2.41c7.75-.1,11.36,3.47,11.93,11.5.14,2-1.1,5.54,2.74,4.83,2.94-.55,6.3-2.06,6-6.15a14.62,14.62,0,0,0-1.54-5.44c-1.82-3.65-4-6.67.68-10.38,2.88-2.28,3.36-8.39,7.61-8.39,6.1,0,9.69-2,11.58-7.63.24-.73,1.14-1.22,1.69-1.85,5.19-6.06,10.06-12.25,10.51-20.77.12-2.22.14-5.62,2.85-5.62,3.4,0,3,3.64,2.88,6-.27,5.58-1,11.13-1.5,17,2.23-.76,3.32-2.48,3-3.46-1.6-4.38,1.7-7.41,2.31-10.85,1-5.6-1.13-11.8-2.19-17.69-.19-1.08-1.79-.7-2.8-.42-1.25.34-2.5.64-3.5-.53-1.94-2.28-3.58-3.37-6.9-1.41-2.44,1.44-4.85-1.38-6.57-3.38-1.91-2.22.53-3.46,1.62-4.7,3.47-4,7.27-7.63,10.71-11.6,6.09-7,20.46-11.51,28.76-7.91,4.15,1.8,7.46,1.89,11.15-.25a21.59,21.59,0,0,1-1.91-3.72c-.23-.77,11.47-10.66,12.41-10.68,2,0,3.92.42,4.62,2.53,1.24,3.75,2.8,1.6,5.1,1,4.24-1.08,2.59-7,7.11-7.79-.19,8.16-5.39,13.17-10.45,17.62-10.53,9.27-17.36,19.44-12.6,34.17.55,1.7.12,4.17,2.86,4.16,2.15,0,3.82-.57,4.66-3.23,2-6.18,8.34-9.37,10.27-16.33,1.06-3.85,2.32-6.7.15-9.91-1.28-1.9-.1-3,.11-4.57,1.3-9.68,11.78-2.4,15.13-8.36.69-1.22,2.42-.46,3.51.07,2.4,1.14,3.67-.25,5.43-1.62,5.29-4.11,10.37-9.34,16.44-11.34,5.8-1.92,6.43-4.07,4.91-8.87-1.36-4.29.73-5.88,4.75-5.81V123.79c-6.32-7.91-15.28-8.74-24.38-9-2.76-.09-3.66,1.64-3.08,4.21.46,2.06.57,4.22-2.32,3.74-2.05-.34-3.24-2-1.95-4.31,1.86-3.27-1.19-4.46-2.45-3.32-6,5.42-13,.62-19.23,2.43-1.71.5-3.63-.09-4.21-2.65-2.13-9.42-4.74-10.87-14.27-8.23-4.18,1.16-7.23.29-9.2-4.09-2.38-5.29-6.37-8.38-12.51-9.16-5.53-.7-10.91-2.64-16.36-4h0l-.5-.11.14.5c-.53,2.67-4.33,2-4.77,4.58-.86,4.87-4.37,5.12-8.3,5.86-4.87.91-11.17-.67-13.49,6.25-.54,1.62-2.33,1.26-3.09.22-2.48-3.38-5.18-6.69-3.9-11.5,2.21-8.29,1.24-10.11-6.57-13.83a13.45,13.45,0,0,1-2-1.48c-4.28-3.15-6.67-2.38-8.1,2.59-1.77,6.13-5.92,7.53-10.13,2.59-2.34-2.74-4.7-3-7.53-3.33-9.34-1-11.51-3.94-9.3-13.48a41.36,41.36,0,0,0,.73-7.47c.46-9.29-1.06-11.12-10.58-12.56-3.29-1.84-8-.75-10.14-5-.63-1.72.68-3.74-2.24-5.11-6-2.83-11.3-1.51-12.52,5.65-1,6.12-6.52,6.79-9.06,10.68a1.26,1.26,0,0,1-2.15.09c-3-3.74-5.33-2-7.71-.21-.52.4-1,.8-1.58,1.15"/><path class="cls-2" d="M929.54,496l0,0c9.47-9.47,10.55-21.56,2.63-31.61-8.31-10.54-16.72-21-22.75-33.11-.73-1.47-.65-3.64-3-3.31-2.13.3-2.09,2.34-2.44,4-.31,1.45-.56,2.91-.91,4.34-.47,1.95.27,5-2.38,5.29-3,.37-6.45.21-8.71-2.59a8.37,8.37,0,0,1-1.87-7.08c.27-1.47,1-4.08-1.48-4-4.5.11-8.75-1.12-13.13-1.57-3-.31-3.17,1.66-3.54,4-.59,3.72-2.65,5.25-6.77,4.38-6.34-1.35-14.67,5.65-15.36,12.43-2,3-4.16,5.65-8.34,4.82-3.65,1.5-8,1.38-10.78,4.91-2.79,2.24-6.39,4.12-3.73,8.71-.45,2.89-1.49,5.93-.4,8.7,2.8,7.13,4.81,14.32,4.45,22.1-.15,3.17,2.41,5.26,4.93,4.06,6.1-2.92,13.09-3.09,18.87-6a75.6,75.6,0,0,1,12.72-5.08c7.3-2.17,13.08-.1,17.68,6,.74,1,1,2.49,2.55,2.53,5.57.12,8.13,4.7,10.71,8.23,4.73,6.45,16.4,8.48,23,4.48C927.52,506.88,928.47,501.65,929.54,496Zm.19-3.53.05,0Z"/><path class="cls-2" d="M167.87,102.8c1.63-1.11,1.68-2.81,2.49-4.21,1.83-3.15,2.53-7.2,6.55-8.7-.67,1.94-1.4,3.86-2,5.82-1.46,4.89,1,9.4,2.86,13.26,1.25,2.62,6,1.77,9-.16,1.76-.6,3.1.46,4.54,1.15-1.73,4.17-6.31,1.86-9.13,4-1.05.78-3.54.27-3.71,2.33s1.6,3.31,3.38,4.1,4.39-.19,5.28,1.57c4.25,8.49,10.18,4.28,15.49,2,3.94-1.68,7.09-3.54,11.49-.45,2.82,2,6.79,1.1,8.68-2.49,1.43-2.71,3.36-6.39,0-8.6-10.11-6.58-10.31-16.33-9.37-26.64.24-1.71.58-3.48-2-3.66a5.85,5.85,0,0,0-4,1.28c-4,2.59-3.76,6.2-4.12,9.9-1.36-1.52-3.27-4.57-4-4.31-6.66,2.39-10.34-3-15.17-5.28l.32-.41h0a1,1,0,0,0-.9.11c-2.43-3.25-4-7.67-9.37-7-1.86-1-3.62-2.33-5.6-2.87-3.69-1-9.9-1.18-10,1.93-.12,6.79-2.8,13.24-2,19.93C157.54,103.2,162.67,106.32,167.87,102.8ZM184,83.66h0l-.94.7Z"/><path class="cls-2" d="M899.79,401c-4.17-.68-7.61-2.22-10.63,1.82a2.55,2.55,0,0,1-3.83.74,2.08,2.08,0,0,1-.85-2.74c.5-1.12,2.77-2.76-.06-3.09-3-.35-5.65-3.54-8.86-1.59-1.77,1.08-.55,2.39.37,3.67A17.57,17.57,0,0,0,887.22,407c2.79.55,6.55,2,6.56,4.17,0,6.41,4.75,6.64,8.62,8.9,3.5,2,5.58,1.81,8.2-.8,3.14-3.13,6-2.78,7.91,1.35,2.06,4.42,5.59,4.34,10.17,3.62C919.87,414.89,913.85,403.34,899.79,401Z"/><path class="cls-2" d="M833.63,403c3.86-6.53,5.15-13.77,4.88-22.57-.17-.24-.06-2.49-2.17-3.28a3.89,3.89,0,0,0-4.54,1.26,41.26,41.26,0,0,1-16.54,11.05,3.89,3.89,0,0,0-2.86,4.3c.27,6.47,13.62,14.52,19.25,11.54A6,6,0,0,0,833.63,403Z"/><path class="cls-2" d="M882.55,287.65c-5.82.64-10.63,4.78-10.86,9.57-.07,1.59-.55,3.8,1.35,4.5,2.35.87,2.62-1.52,3.12-3,.62-1.78,1.56-2.28,3.47-2.81,6.26-1.76,12.34-4.18,18.49-6.34,1.41-.5,3-1,3.26-2.65.83-5.37,3.89-10.34,3-15.49-.28-4.74-2.34-9.8,5.62-8.94,1.8.19,7-1,5.07-5.23-1.24-2.78-5.33-3.28-8.2-3.93-3-.69-2,2.84-2.72,4.59-.28.72-.94,2-1.24,1.9-5.85-1-3.18,3-2.9,5.14C901.4,275.74,893.23,286.48,882.55,287.65Z"/><path class="cls-2" d="M636,468.13c2,.15,3.83-1.1,4.56-3.62,2.68-9.25,5.37-18.5,7.77-27.82.51-2,0-4.57-1.94-5.7-2.42-1.42-3.11,1.4-4.19,2.65-2.08,2.4-3.93,5.25-7.12,6-4.11.93-5,3.61-4.38,7a15.57,15.57,0,0,1-1.39,9.71C626.79,461.72,630.45,468.29,636,468.13Z"/><path class="cls-2" d="M443.66,143.29c-1.18-.94-3.87,1.71-4.27,3.69-.49,2.39,1.71,1.62,3.06,1.6,2.42,0,2.21,1.07,2.11,3.19-.13,2.8-.27,6.53,2.7,8,3.93,2,8.36,3.43,11.69-1.47,2.15,1.23,2.72-1.4,4.23-1.73l0,0,2.43-3.06c2.23-1.47,4.23-3,2.21-6.05-1.75-2.6-3.33-4.9-7.29-4.85C455,142.64,449.7,148.1,443.66,143.29Z"/><path class="cls-2" d="M233.4,84.49c2.59-1.51,1.23-2.12.55-3.82-2-5.14-6.15,2.82-8.46-1.5-.32-.59-1.72,1.9-2.19,3.14-.71,1.86-.32,4.08-2.46,5.41-3.33,2.06-1.05,4.54.61,5.33,4.56,2.16,6.08,6.49,8.28,10.47,7-3.29,5.77-8.08,4.16-13.27C233.33,88.47,231.08,85.84,233.4,84.49Z"/><path class="cls-2" d="M217.33,49.91c-.19-.93-1.38-2.5-2.83-1.8-1.85.89-.32,2.45-.38,3.74-.35,8.64,10.92,8.64,11.9,16.24a9.22,9.22,0,0,0,1.76,0c8-.2,5.18-6.43,5.88-9.82.56-9-.85-13.18-10.55-7.27C222.69,51.27,218.39,55,217.33,49.91Z"/><path class="cls-2" d="M179.24,63.07c.63,3.16,2.73,5.92,6.34,3.27a3.9,3.9,0,0,1,1.68-.85,1.23,1.23,0,0,0,.7.32c.37.6.26,1.85.7,2.38-.77,1.75-1.71,3.51.33,5.06,1.62,1.23,3.05.36,4.66-.27,3.27-1.28,5.67-4.45,9.55-4.37,4.17.08,7.5-1.13,8-5.92.62-5.46-4.13-4.65-7.07-5.92-1.12-2.88-.33-6.32-2.09-8.33-3.68,1.38-6.36,3.33-1.86,6.78.37.29-.23,1.86-.38,2.84-.51,4.21-3,2.51-4.5,1.14-1-.89-1.56-2.32-3.1-2.67-1.88-3.72-7-6.71-8.6-4.84C181.32,54.39,178.35,58.61,179.24,63.07Zm9.28-6a.21.21,0,0,0-.14-.08A.2.2,0,0,1,188.52,57Z"/><path class="cls-2" d="M664,110.15c3.41,0,5.11-.9,2.41-4.23-2.24-2.76-2.86-5.92-3.08-9.38-.29-4.46,2.84-7.9,3.15-12.12l-2.6.36L662.75,86h0l1.18-1.19h0l2.6-.36c4-11.4,11-20.08,22.16-25.22,3-1.41,5.9-3.24,8.87-4.81,2.59-1.37,3.19-3.75,3.21-6.36a3.85,3.85,0,0,0-2.83-3.81c-2.76-.76-4.27,1.81-5.49,3.42-3,4-6.42,6.41-11.59,5.41-1.31-.25-2.07.58-3.16,1.2-8.47,4.89-12.54,12.64-14.82,21.7-5.88,2.77-5.33,9.58-8.69,13.93a1,1,0,0,0-.06,1.06l.64,5.88.18.08c-3.06-.42-3.75,1.3-3.18,3.8C652.66,104.66,660,110.15,664,110.15ZM660,95.21c.3-.46.58-.92.85-1.39C660.58,94.29,660.29,94.76,660,95.21Zm2.43-5.08a13.22,13.22,0,0,1-.51,1.52,13.23,13.23,0,0,0,.51-1.52,11.1,11.1,0,0,0,.38-3.3A11.1,11.1,0,0,1,662.43,90.13Z"/><path class="cls-2" d="M169.11,56.17c4.32-.88,7.27-4.23,11-6.24s2.35-6.41,1.73-9.75c-.48-2.6-2.75-1.84-4.56-1.07-2.76-.33-5,.2-5.57,3.45-2.18,2.75-4.4,5.47-6.52,8.26a4.1,4.1,0,0,0-.53,4.72C165.73,57.39,167.49,56.5,169.11,56.17Z"/><path class="cls-2" d="M794.28,28.22c3.22-.49,7-.28,8.67-3.45,1.9-3.55-1.52-5.62-3.48-8-.54-.64-1.06-1.31-1.59-2-.85-3.16-2.28-5.07-5.73-2.69-1.24,3.07-3.08,6-3.58,9.25C788,25.22,788.52,29.1,794.28,28.22Z"/><path class="cls-2" d="M272.45,150.38c-2-1.18-4.11-1.93-5.8-.36-2.42,2.24-1.64,5.51-1.43,8.38.15,2,.86,4.12,2.91,5.23.3.16,1,.12,1.17-.08,3-4.81,7.69-2.34,13-2.37C278.3,157.08,276.52,152.77,272.45,150.38Z"/><path class="cls-2" d="M993.56,500.28c4.85,6.75,2.19,15.18,5.69,23,2.71-4.21,5-7.8,7.32-11.41.62-1,.68-2.59-.52-2.5C999.29,509.91,997.85,503.38,993.56,500.28Z"/><path class="cls-2" d="M840.9,403.14c-.07.48,1.38,1.71,1.52,1.62,4-2.53,4.42,1.67,6.22,3.27,1,.88,2.13,2.53,3.5.46.71-1.07-3-10.24-4.47-10.55-1.71-.37-3.63-.27-2.91-2.82.59-2.07,2.53-1.92,4.18-1.95,2.35,0,5.15,2.79,7-1.41a60.71,60.71,0,0,0-6.68.05c-2.13.25-5.22-1.34-6.21.93C841.66,395.92,841.43,399.63,840.9,403.14Z"/><path class="cls-2" d="M899.07,67.41h0c.14,1,.42,2.75,1.49,2.05,3.07-2,5.94-.39,8.88-.2a7.33,7.33,0,0,0,4.19-8.76c-.92-3.58-4.89-3.08-7.92-3.37-.74-.95-1.49-2-2.88-1.6-1.85.58-1,2.34-1.33,3.57-2.91-1.28-5.22-8.17-9-1.34A9.76,9.76,0,0,0,892.94,68C895.27,71.64,897.52,72.45,899.07,67.41Zm1.41-4,0-.33Z"/><path class="cls-2" d="M270.1,331.09A40.15,40.15,0,0,1,293,337.67c.6.38,1.64.06,2.47.09,1.14,0,2.16-.24,2.34-1.51s-.62-1.91-1.81-2.08c-3.25-.44-5.56-2.77-8.37-4.08C282.52,327.72,277.25,325.58,270.1,331.09Z"/><path class="cls-2" d="M305.54,25.58c-4.62,3.71-1.72,7,1.67,7.67,4.19.78,7.2,6.76,12.56,3,.77-.55,1.31,1.66,1,2.94-2.38.9-5.33-.16-7.32,2.12-2,.63-5.3-1-5.66,2.29-.3,2.72,2.71,3.26,4.67,4.29,1.44.76,5.7-.38,1.86,3.69-1.64,1.73.85,4.46,3,3.76,3.2-1,6.34,1.71,9.78-1,1.87-1.49,6-.78,8.95,1.1,8.69,5.51,11.26,14.63,14.23,23.55.43,3.53-1.93,8,3.39,9.86a2.2,2.2,0,0,1,.31.9c-2.6.19-3.52,1.22-3,4.1,1.33,7.35,4.55,14.4,2.36,22.36-.72,2.6,1.39,6.42,6,4.19,1.09-.53,2.45-1.42,3.19.23.6,1.33-.57,2.29-1.47,3.2-4.27,4.34-5.3,9.65-5.29,15.59,0,6.45,4.19,11.32,5.75,17.22,1.21,4.6,2.54,10.07,7.46,12.94a1,1,0,0,1,.48.61c-.53,3,1,4.74,3.43,6,6.66-2.79,9.14,2.55,12.37,7.08,1.3-9.86,6.14-17.94,8.15-26.83,1.25-5.52,3.52-8.95,9.14-10.1a13.64,13.64,0,0,0,4.92-2.51c5.89-4.17,7.26-11.33,11.44-16.54,1.52.61-.35,3.24,1.27,2.92,10-2,17.71-7.6,23.46-15.61-3.86-2.33-8.42-2-12.94-1.9l0,0-.6-1.72c.93-.16,1.82-.35,1.23-1.72l.16-.13c2.09.21,4.17.42,3.39-2.82a2.18,2.18,0,0,0,0-1l.21-.29h0c2.81,0,3.43,2.34,4.85,4.07,2.71,3.31,5.12,3,6.35-1.42a9.45,9.45,0,0,0-2.33-7.78l-.18-1.32-.07-.57c2-3.36,3.06-6.84,1.36-10.67,4-3.6,0-7.35.19-11,4.89,2.8,8.27-1.08,9.68-4,1.27-2.63,4.11-6.69-.4-10.52-2.77-2.36-5.56-6.48-.62-10.57,1.81-1.5,2.17-4.44.19-6.77.85-3.18-1.63-4.09-3.62-5.32,3.73-3.78,3.31-5-2.53-7.27-.37-.47-1.06-.94-1.07-1.42-.05-8.35,8.27-14.42,6.16-23.55-.55-2.38,4.78-2.34,4.82-5.69H323.68c-1.72,1.85,2,.32,1.69,3.07-.62,5.42-3.1,9.21-6,13.21C311.2,14,309.68,22,305.54,25.58ZM435.43,103.2a1.43,1.43,0,0,0-.13.26A1.42,1.42,0,0,1,435.43,103.2Zm13.12-39.93c-.37-.15-.75-.26-1.09-.42h0c.34.17.72.28,1.09.42l1.81-1.51-1.81,1.51c.9.16,1.56,0,1.77-.64C450.11,63.3,449.45,63.43,448.55,63.27Z"/><path class="cls-2" d="M213.68,19.68c1.76.83,3.3,2.88,1.66,3.3-2.11.54-3.79.1-2.65,2.86,1.28,3.08,3.38,1,5.18.47,2.41,1.93,0,9,6.7,6.35,2.15,1.05,5.71,1.78,4.8-1.36-1.24-4.28,0-10.17-5.61-12.63-.79-2.55-3.17-2.68-5.16-3.4.63-2.91-1.46-4-3.49-3.94-1.53,0-3.91.4-4.23,2.84A5,5,0,0,0,213.68,19.68Z"/><path class="cls-2" d="M189.63,36.85c.18,2.14,2.46,3.47,5.35,2.45,2.53-.89,4.5-1.85,3.07-4.76-.7-1.43-.17-1.62.75-2.21a1.6,1.6,0,0,0,.82-2.12c-.6-1.24-1.76-1-2.72-.72-3.54,1.13-7,2.37-11.2,3.78C187.29,34.47,189.39,34,189.63,36.85Z"/><path class="cls-2" d="M923.14,70.14c2.55,1.24,5.42.74,6.46-1.9S927.92,65,926,64.32s-3.89-1.48-5.45-2.08c-3.12,0-3.95,1.21-2.64,3.57C919,67.93,921.11,69.15,923.14,70.14Z"/><path class="cls-2" d="M241,60.47c-4.07-.45-4.45,3.7-4.46,6.07,0,3.14,3.48,4.62,6,5.3,3,.8,2.91-2,2.83-3.47C245.43,64.32,244.92,60.9,241,60.47Z"/><path class="cls-2" d="M300.25,342.88c4.8,1.1,9.27-.1,14.8-1.4C306.6,335.58,303.32,336,300.25,342.88Z"/><path class="cls-2" d="M846.73,341.71c-4.53.43-2.2,4.72-3.59,6.91,0,1.49-.45,3.84,1.64,3.22a7.4,7.4,0,0,0,5.31-6.34C850.28,343.61,849,341.5,846.73,341.71Z"/><path class="cls-2" d="M904.49,85.55c1.62.2,4,1.19,4.31-.9.75-4.93-3.51-5.86-7.41-7.21C903.67,79.78,897.49,84.69,904.49,85.55Z"/><path class="cls-2" d="M852.61,371.62c2.75,1.3,1.61,7.41,6.37,5.11,2-.95,3.14-4.12,1.85-6.16C857.87,365.89,855.75,372.7,852.61,371.62Z"/><path class="cls-2" d="M852.61,371.62a2.25,2.25,0,0,0-.35-.15A2.48,2.48,0,0,0,852.61,371.62Z"/><path class="cls-2" d="M194.11,27.46c2.17-1.84,6.07,2,6.88-2.23.42-2.17-1.36-3.88-3.53-4.5-1.66-.47-8.54,4.47-8,5.6C190.56,28.36,193,25.39,194.11,27.46Z"/><path class="cls-2" d="M542.65,25.9l.33.41c-.22,4.15,1.36,7.7,3.66,11,.06,5.23,5.34,6.64,7.75,10.63,0-5.75,4.2-9.82,4.63-15.4.24-3.12,1.26-6.94,4.66-9,4.88-3,3-5.46-.68-7.82-2.05-1.33-3.19-2.85-.35-4.52v0c3.07.78,6.78-.75,9.09,2.87.7,1.09,2.11.78,3.29-.15a21.27,21.27,0,0,0,8-13H560.22c-2.52,1.66-1.34,7.22-6.71,6.18C552.5,7,552,9.5,552.28,11c.32,1.87.77,3.72,1.17,5.58.24,1.19-1,2.26-1,3.52,0-1.26,1.21-2.33,1-3.52l-2.53-1.53c-2.37-2.74-.43-6.7-2.69-9.9L546.6,8.73h0l-2.26,1c-.86-1.25-1.43-2.51-.26-3.9.8.07,1.81-.1,1.51-1-.36-1.09-1.11-.5-1.59.18-6.35-.22-7.22,1.07-5.81,8.56C535.71,23.4,536.07,24.41,542.65,25.9Z"/><path class="cls-2" d="M918,523.45c.45,1.6-.37,4.36,2.26,4.47,2.14.09,2-2.31,2.32-3.8s.14-3-2.21-3.24C919.47,521.45,917.4,521.37,918,523.45Z"/><path class="cls-2" d="M645.16,124.74a3.25,3.25,0,0,0,2.78-3c0-1.69-1.12-2.61-2.81-2.91-1.92.59-2.46,2.13-2.45,3.91A1.89,1.89,0,0,0,645.16,124.74Z"/><path class="cls-2" d="M284.8,123.22c-1.87.53-2.24,2-2.26,3.49a3.48,3.48,0,0,0,3.06,3.5c1.63.32,2.24-1.09,2-2.44A6.24,6.24,0,0,0,284.8,123.22Z"/><path class="cls-2" d="M922,411c3.39,1.14,5.86,1.7,8.41-.32C928,410.27,925.41,409.33,922,411Z"/><path class="cls-2" d="M849.82,361.17c.43,3.22.05,5.48,2.14,6.94.4.28,2.38-.61,2.51-1.2C855,364.44,853.08,363.28,849.82,361.17Z"/><path class="cls-2" d="M338.81,247.88c0-.42-.73-1.24-1.2-1.3-2.45-.33-2.08,1.71-2.48,3.1C336.45,249.23,338.59,250.41,338.81,247.88Z"/><path class="cls-2" d="M335.1,249.79h0s0-.08,0-.11l-.11,0h0a.29.29,0,0,1,0,.09h.12Z"/><path class="cls-2" d="M533.48,263.29a.74.74,0,0,0-1.23-.56,1.11,1.11,0,0,0-.4,1,7.37,7.37,0,0,0,1.14,1.52A6.72,6.72,0,0,0,533.48,263.29Z"/><path class="cls-2" d="M767.5,10.38c.08-.17.24-.36.21-.51s-.22-.21-.38-.3l-.71.36Z"/><path class="cls-2" d="M767.45,9.5h0c2.25-.63,4-.58,4,2.52s2,4.57,4.49,5.74c2.24.92,3.91,3.32,6.77,2.67,2.73.94,5.76-.78,4.93-2.69-2.27-5.2,3.55-10.84-1.36-15.41-.51-.48-2-.1-3,.16-1.5.41-1.86-.19-1.7-1.51H767.66l-.4,8.54h0l0,0Z"/><path class="cls-2" d="M464.25,157l-1-.48,0,0Z"/><path class="cls-2" d="M233.87,29a4.18,4.18,0,0,0,2.77,3.92,19.93,19.93,0,0,0,1.65,4c1.55,2.24,4.6-.6,6.28,1.64.5-.86,1.52-1.79,1.41-2.55-.4-2.72-2.59-1.67-4.34-1.91-2-.26-2.88-1.35-2.89-2.9a2.08,2.08,0,0,0,.36-1.88c2-4.17-1.06-6-3.65-8.08-1.09-.79-2.5-2.87-3.47-1.31-1.12,1.81-1.69,4.51.48,6.52C232,27.82,233,28.35,233.87,29Z"/><path class="cls-2" d="M285.13,321.32l.1.08h0l-.1-.08a36.71,36.71,0,0,0,1.63,4.52,2.51,2.51,0,0,0,1.93,1.14c1.05,0,1.09-1.27.78-1.85-.93-1.72-.77-4.87-4.23-3.75l0-.1Z"/><path class="cls-2" d="M285,321l.16.33.37-.18Z"/><path class="cls-2" d="M978.48,540.76c3.69,3.86,5.93.28,7.24-2.09,2.18-4,2.74-8.78,7-11.67-9.71,1.68-14.48,6.66-13.44,13h0C978.36,539.57,977.94,539.68,978.48,540.76Z"/><path class="cls-2" d="M779,633.57l.82,1.07C779.74,634.15,780.31,633.2,779,633.57Z"/></g></svg>