<?xml version="1.0" standalone="no"?>
<!DOCTYPE svg PUBLIC "-//W3C//DTD SVG 20010904//EN"
 "http://www.w3.org/TR/2001/REC-SVG-20010904/DTD/svg10.dtd">
<svg version="1.0" xmlns="http://www.w3.org/2000/svg"
 width="420.000000pt" height="420.000000pt" viewBox="0 0 420.000000 420.000000"
 preserveAspectRatio="xMidYMid meet">
<metadata>
Created by potrace 1.11, written by Peter Selinger 2001-2013
</metadata>
<g transform="translate(0.000000,420.000000) scale(0.100000,-0.100000)"
fill="#000000" stroke="none">
<path d="M1817 3754 c-1 -1 -29 -4 -62 -8 -33 -3 -75 -10 -93 -15 -18 -6 -33
-10 -35 -10 -4 0 -30 -8 -79 -26 -26 -10 -51 -18 -55 -18 -27 -1 -235 -135
-302 -194 -72 -63 -187 -183 -175 -183 4 0 -3 -8 -14 -19 -12 -10 -22 -22 -22
-25 0 -4 -6 -14 -12 -21 -29 -32 -38 -45 -38 -53 0 -4 -8 -17 -17 -28 -49 -55
-153 -272 -198 -414 -35 -112 -34 -106 -50 -210 -13 -85 -6 -685 10 -767 3
-15 7 -48 10 -73 3 -25 15 -92 27 -150 11 -58 21 -111 21 -117 0 -7 3 -13 6
-13 4 0 8 -11 9 -24 2 -30 37 -90 133 -230 41 -59 79 -114 84 -123 6 -10 16
-24 23 -31 7 -8 21 -27 30 -41 32 -51 114 -151 123 -151 5 0 9 -6 9 -12 1 -18
71 -70 87 -64 7 3 13 1 13 -4 0 -13 124 -100 149 -105 12 -2 25 -6 30 -10 6
-3 19 4 30 16 19 20 22 21 38 7 33 -29 78 -46 153 -58 41 -6 86 -14 100 -16
70 -13 176 -28 295 -40 140 -16 551 -1 635 21 8 2 30 7 48 10 18 3 56 14 83
24 l50 20 11 -25 c6 -13 18 -25 27 -26 84 -8 103 2 192 94 30 32 58 56 61 53
3 -3 14 7 24 21 10 15 29 39 41 54 26 32 76 129 76 147 0 7 4 13 9 13 4 0 8
10 8 21 0 12 7 27 16 33 15 11 56 110 52 125 -1 3 6 21 15 39 10 17 15 32 11
32 -4 0 -1 6 5 13 6 8 8 17 4 20 -3 4 1 7 9 7 9 0 18 -7 22 -15 8 -22 44 -18
56 6 7 11 12 54 13 95 1 41 6 74 11 74 5 0 4 6 -1 13 -5 6 -8 32 -6 57 5 63 5
60 0 115 -6 55 -14 82 -32 105 -29 35 -26 55 19 123 24 36 41 69 38 72 -3 3 0
5 6 5 7 0 12 7 12 15 0 8 3 15 8 15 4 0 12 10 18 23 15 33 58 111 64 117 3 3
17 30 31 60 60 123 63 160 12 138 -56 -25 -139 -77 -173 -110 -75 -72 -73 -72
-65 12 4 41 9 83 11 93 16 85 23 525 10 633 -3 28 -12 70 -20 92 -8 22 -12 43
-9 46 4 3 1 6 -5 6 -7 0 -11 3 -10 8 4 11 -35 92 -44 92 -4 0 -8 6 -8 14 0 30
-348 377 -392 392 -10 3 -18 8 -18 12 0 4 -18 18 -40 32 -22 14 -40 28 -40 33
0 4 -4 6 -9 2 -5 -3 -13 0 -16 5 -17 27 -308 145 -341 139 -5 -1 -11 0 -14 1
-21 8 -95 11 -373 13 -175 1 -319 1 -320 1z"/>
</g>
</svg>
